Recursive Mono-Casual Black Italic.ufo
<glyph name="asterisk" format="2">
  <advance width="600.0"/>
  <unicode hex="002A"/>
  <outline>
    <contour>
      <point x="352.66666666666663" y="559.3333333333333" type="curve" smooth="yes"/>
      <point x="318.00000000000006" y="559.3333333333334"/>
      <point x="292.66666666666663" y="555.0"/>
      <point x="265.3333333333333" y="545.3333333333333" type="curve"/>
      <point x="274.3333333333333" y="517.6666666666666"/>
      <point x="278.6666666666667" y="500.3333333333333"/>
      <point x="280.66666666666674" y="461.33333333333337" type="curve" smooth="yes"/>
      <point x="281.99999999999994" y="434.66666666666674"/>
      <point x="283.0" y="402.66666666666663"/>
      <point x="282.66666666666663" y="377.33333333333337" type="curve"/>
      <point x="276.3333333333333" y="374.0" type="line"/>
      <point x="257.66666666666663" y="403.6666666666667"/>
      <point x="239.0" y="424.33333333333337"/>
      <point x="215.0" y="444.66666666666674" type="curve" smooth="yes"/>
      <point x="181.66666666666666" y="472.3333333333333"/>
      <point x="143.66666666666666" y="466.66666666666674"/>
      <point x="110.66666666666669" y="426.0000000000001" type="curve" smooth="yes"/>
      <point x="93.0" y="404.33333333333337"/>
      <point x="82.66666666666667" y="381.3333333333334"/>
      <point x="74.66666666666669" y="359.66666666666674" type="curve"/>
      <point x="128.33333333333331" y="336.6666666666667"/>
      <point x="167.6666666666667" y="325.00000000000006"/>
      <point x="223.66666666666666" y="308.00000000000006" type="curve"/>
      <point x="222.33333333333334" y="302.00000000000006" type="line"/>
      <point x="174.66666666666666" y="292.66666666666674"/>
      <point x="145.66666666666669" y="286.3333333333333"/>
      <point x="102.33333333333331" y="273.33333333333337" type="curve" smooth="yes"/>
      <point x="53.66666666666667" y="258.6666666666667"/>
      <point x="42.66666666666666" y="221.00000000000003"/>
      <point x="59.0" y="169.99999999999997" type="curve" smooth="yes"/>
      <point x="65.33333333333333" y="149.99999999999997"/>
      <point x="76.33333333333334" y="136.0"/>
      <point x="90.33333333333333" y="121.99999999999999" type="curve"/>
      <point x="148.66666666666666" y="161.66666666666666"/>
      <point x="183.33333333333331" y="188.99999999999997"/>
      <point x="238.33333333333334" y="235.33333333333331" type="curve"/>
      <point x="243.66666666666669" y="232.0" type="line"/>
      <point x="225.00000000000003" y="202.3333333333333"/>
      <point x="207.66666666666663" y="175.3333333333333"/>
      <point x="193.66666666666669" y="143.66666666666663" type="curve" smooth="yes"/>
      <point x="160.66666666666666" y="72.0"/>
      <point x="187.0" y="41.666666666666664"/>
      <point x="254.66666666666674" y="41.666666666666664" type="curve" smooth="yes"/>
      <point x="285.99999999999994" y="41.66666666666668"/>
      <point x="309.3333333333333" y="45.33333333333334"/>
      <point x="340.0" y="55.00000000000001" type="curve"/>
      <point x="330.99999999999994" y="82.66666666666669"/>
      <point x="329.33333333333326" y="102.66666666666667"/>
      <point x="328.33333333333326" y="145.66666666666666" type="curve" smooth="yes"/>
      <point x="328.0" y="173.99999999999997"/>
      <point x="328.33333333333337" y="199.33333333333334"/>
      <point x="329.0" y="232.33333333333334" type="curve"/>
      <point x="335.0" y="235.33333333333331" type="line"/>
      <point x="357.0" y="202.33333333333331"/>
      <point x="369.6666666666667" y="184.0"/>
      <point x="395.6666666666667" y="158.66666666666666" type="curve" smooth="yes"/>
      <point x="424.6666666666667" y="130.33333333333331"/>
      <point x="464.6666666666667" y="137.66666666666666"/>
      <point x="503.3333333333332" y="184.66666666666666" type="curve" smooth="yes"/>
      <point x="520.9999999999999" y="206.33333333333331"/>
      <point x="531.0" y="224.99999999999997"/>
      <point x="538.9999999999999" y="248.33333333333334" type="curve"/>
      <point x="479.33333333333326" y="274.0"/>
      <point x="447.0" y="285.0"/>
      <point x="390.3333333333333" y="301.00000000000006" type="curve"/>
      <point x="391.66666666666674" y="307.00000000000006" type="line"/>
      <point x="432.33333333333337" y="313.6666666666667"/>
      <point x="463.9999999999999" y="320.00000000000006"/>
      <point x="509.99999999999994" y="334.66666666666674" type="curve" smooth="yes"/>
      <point x="557.6666666666667" y="349.33333333333337"/>
      <point x="575.6666666666667" y="389.66666666666674"/>
      <point x="557.3333333333333" y="438.00000000000006" type="curve" smooth="yes"/>
      <point x="548.6666666666666" y="459.00000000000006"/>
      <point x="538.0" y="471.33333333333326"/>
      <point x="519.6666666666665" y="486.0" type="curve"/>
      <point x="454.66666666666663" y="439.33333333333337"/>
      <point x="418.6666666666667" y="410.33333333333337"/>
      <point x="375.3333333333333" y="374.0" type="curve"/>
      <point x="370.6666666666666" y="377.33333333333337" type="line"/>
      <point x="385.6666666666667" y="398.6666666666667"/>
      <point x="401.66666666666674" y="423.3333333333334"/>
      <point x="413.6666666666667" y="453.0" type="curve" smooth="yes"/>
      <point x="443.6666666666667" y="527.3333333333333"/>
      <point x="418.3333333333333" y="559.3333333333333"/>
    </contour>
  </outline>
</glyph>
<glyph name="three" format="2">
  <advance width="600.0"/>
  <unicode hex="0033"/>
  <outline>
    <contour>
      <point x="372.0" y="720.0" type="curve" smooth="yes"/>
      <point x="294.9999999999999" y="720.0"/>
      <point x="234.66666666666669" y="708.6666666666667"/>
      <point x="193.0" y="676.0" type="curve" smooth="yes"/>
      <point x="155.6666666666667" y="646.3333333333333"/>
      <point x="139.66666666666666" y="613.9999999999999"/>
      <point x="129.66666666666666" y="574.6666666666667" type="curve" smooth="yes"/>
      <point x="121.00000000000003" y="541.3333333333333"/>
      <point x="121.33333333333336" y="501.6666666666668"/>
      <point x="128.66666666666669" y="473.99999999999994" type="curve"/>
      <point x="134.66666666666669" y="473.99999999999994" type="line"/>
      <point x="193.33333333333334" y="515.6666666666665"/>
      <point x="247.66666666666669" y="529.0"/>
      <point x="321.6666666666666" y="529.0" type="curve" smooth="yes"/>
      <point x="375.33333333333337" y="529.0"/>
      <point x="413.66666666666663" y="519.0"/>
      <point x="434.0" y="499.00000000000017" type="curve" smooth="yes"/>
      <point x="433.00000000000006" y="495.6666666666667" type="line" smooth="yes"/>
      <point x="389.99999999999994" y="431.6666666666667"/>
      <point x="314.3333333333333" y="401.66666666666663"/>
      <point x="202.33333333333337" y="401.6666666666667" type="curve"/>
      <point x="192.33333333333337" y="385.66666666666663"/>
      <point x="185.66666666666669" y="369.6666666666667"/>
      <point x="180.66666666666666" y="349.99999999999994" type="curve" smooth="yes"/>
      <point x="169.00000000000003" y="303.0"/>
      <point x="182.0" y="276.99999999999994"/>
      <point x="221.0" y="275.99999999999994" type="curve" smooth="yes"/>
      <point x="313.6666666666668" y="273.3333333333333"/>
      <point x="370.66666666666663" y="250.0"/>
      <point x="394.0" y="209.33333333333334" type="curve"/>
      <point x="392.99999999999994" y="205.66666666666669" type="line"/>
      <point x="362.66666666666674" y="181.33333333333334"/>
      <point x="314.6666666666667" y="171.66666666666666"/>
      <point x="239.33333333333337" y="171.66666666666666" type="curve" smooth="yes"/>
      <point x="160.66666666666669" y="171.66666666666666"/>
      <point x="103.66666666666664" y="187.0"/>
      <point x="53.33333333333334" y="233.0" type="curve"/>
      <point x="47.333333333333336" y="233.0" type="line"/>
      <point x="31.333333333333336" y="212.0"/>
      <point x="16.000000000000004" y="183.99999999999997"/>
      <point x="8.000000000000005" y="155.33333333333334" type="curve" smooth="yes"/>
      <point x="-7.333333333333327" y="99.66666666666667"/>
      <point x="0.33333333333333703" y="59.33333333333332"/>
      <point x="23.666666666666675" y="32.666666666666664" type="curve" smooth="yes"/>
      <point x="52.000000000000014" y="0.33333333333333215"/>
      <point x="117.66666666666666" y="-20.0"/>
      <point x="225.66666666666666" y="-20.0" type="curve" smooth="yes"/>
      <point x="402.99999999999994" y="-20.0"/>
      <point x="498.3333333333333" y="27.333333333333343"/>
      <point x="528.9999999999999" y="142.33333333333334" type="curve"/>
      <point x="532.3333333333333" y="155.00000000000003" type="line"/>
      <point x="555.3333333333333" y="241.66666666666666"/>
      <point x="509.3333333333333" y="320.0"/>
      <point x="371.3333333333333" y="349.33333333333326" type="curve"/>
      <point x="392.66666666666674" y="318.6666666666667" type="line"/>
      <point x="405.33333333333337" y="371.3333333333333" type="line"/>
      <point x="370.3333333333333" y="341.0" type="line"/>
      <point x="522.6666666666667" y="377.66666666666663"/>
      <point x="593.3333333333333" y="443.6666666666666"/>
      <point x="614.6666666666665" y="527.3333333333333" type="curve" smooth="yes"/>
      <point x="617.3333333333333" y="538.6666666666666" type="line" smooth="yes"/>
      <point x="637.6666666666666" y="626.3333333333335"/>
      <point x="566.9999999999999" y="720.0"/>
    </contour>
  </outline>
</glyph>
<glyph name="H" format="2">
  <advance width="600.0"/>
  <unicode hex="0048"/>
  <anchor x="395.7995302052001" y="711.0" name="top"/>
  <anchor x="244.3333333333334" y="0.0" name="bottom"/>
  <outline>
    <contour>
      <point x="157.00000000000006" y="702.0" type="curve"/>
      <point x="158.33333333333337" y="666.6666666666667"/>
      <point x="156.66666666666674" y="630.0000000000001"/>
      <point x="149.6666666666667" y="590.3333333333335" type="curve" smooth="yes"/>
      <point x="118.33333333333333" y="415.0"/>
      <point x="39.33333333333334" y="276.33333333333337"/>
      <point x="21.33333333333333" y="146.0" type="curve" smooth="yes"/>
      <point x="4.66666666666668" y="30.666666666666664"/>
      <point x="38.66666666666666" y="-9.333333333333332"/>
      <point x="136.66666666666669" y="-9.333333333333332" type="curve" smooth="yes"/>
      <point x="163.0" y="-9.333333333333332"/>
      <point x="184.66666666666669" y="-6.333333333333333"/>
      <point x="199.66666666666669" y="-0.6666666666666665" type="curve"/>
      <point x="198.33333333333334" y="194.33333333333334"/>
      <point x="304.6666666666667" y="377.0"/>
      <point x="337.6666666666667" y="567.6666666666666" type="curve" smooth="yes"/>
      <point x="355.0" y="669.0"/>
      <point x="330.33333333333337" y="709.3333333333334"/>
      <point x="237.33333333333337" y="709.3333333333334" type="curve" smooth="yes"/>
      <point x="208.3333333333334" y="709.3333333333334"/>
      <point x="181.66666666666674" y="706.6666666666666"/>
    </contour>
    <contour>
      <point x="50.333333333333336" y="415.0" type="line"/>
      <point x="44.0" y="390.0" type="line" smooth="yes"/>
      <point x="23.33333333333334" y="305.3333333333334"/>
      <point x="34.666666666666664" y="227.33333333333331"/>
      <point x="72.66666666666667" y="227.33333333333331" type="curve"/>
      <point x="407.66666666666663" y="227.33333333333331" type="line"/>
      <point x="452.99999999999994" y="404.0" type="line"/>
      <point x="391.99999999999994" y="385.6666666666667" type="line"/>
      <point x="378.33333333333337" y="404.3333333333333"/>
      <point x="352.6666666666667" y="415.0"/>
      <point x="310.33333333333337" y="415.0" type="curve"/>
    </contour>
    <contour>
      <point x="507.3333333333333" y="-1.9999999999999991" type="curve"/>
      <point x="502.33333333333337" y="31.66666666666667"/>
      <point x="503.33333333333326" y="69.33333333333331"/>
      <point x="512.6666666666664" y="117.66666666666666" type="curve" smooth="yes"/>
      <point x="543.3333333333329" y="282.3333333333333"/>
      <point x="625.6472792883332" y="441.22024029306664"/>
      <point x="644.6666666666665" y="557.0" type="curve" smooth="yes"/>
      <point x="660.6912323509998" y="657.1525658291334"/>
      <point x="636.0000000000001" y="709.3333333333334"/>
      <point x="527.3333333333335" y="709.3333333333334" type="curve" smooth="yes"/>
      <point x="497.99999999999983" y="709.3333333333334"/>
      <point x="482.00000000000006" y="707.3333333333334"/>
      <point x="462.00000000000006" y="703.6666666666665" type="curve"/>
      <point x="473.00000000000006" y="496.3333333333333"/>
      <point x="338.33333333333337" y="296.66666666666663"/>
      <point x="316.3333333333334" y="113.33333333333336" type="curve" smooth="yes"/>
      <point x="305.66666666666674" y="21.000000000000004"/>
      <point x="338.99999999999994" y="-9.333333333333332"/>
      <point x="431.6666666666667" y="-9.333333333333332" type="curve" smooth="yes"/>
      <point x="463.66666666666674" y="-9.333333333333332"/>
      <point x="485.6666666666667" y="-6.999999999999998"/>
    </contour>
  </outline>
</glyph>
<glyph name="L" format="2">
  <advance width="600.0"/>
  <unicode hex="004C"/>
  <anchor x="255.86635347013342" y="711.0" name="top"/>
  <anchor x="237.83328689153328" y="-1.0" name="bottom"/>
  <anchor x="483.68524339626657" y="401.6666666666667" name="dot"/>
  <anchor x="541.6666666666666" y="596.6666666666666" name="caronslovak"/>
  <anchor x="185.00000000000003" y="374.00000000000006" name="slash"/>
  <outline>
    <contour>
      <point x="182.33333333333334" y="0.0" type="curve" smooth="yes"/>
      <point x="455.33333333333337" y="0.0" type="line"/>
      <point x="498.00000000000006" y="73.33333333333329"/>
      <point x="499.66666666666663" y="195.0"/>
      <point x="408.0" y="195.0" type="curve" smooth="yes"/>
      <point x="234.66666666666669" y="195.0" type="line"/>
      <point x="246.00000000000003" y="312.6666666666667"/>
      <point x="323.06447959999997" y="427.0634642051666"/>
      <point x="346.3333333333333" y="570.0" type="curve" smooth="yes"/>
      <point x="359.4228541708333" y="648.8635721400334"/>
      <point x="348.04629629630006" y="709.3333333333334"/>
      <point x="238.33333333333337" y="709.3333333333334" type="curve"/>
      <point x="209.91666666666669" y="709.3333333333334"/>
      <point x="178.8328401304334" y="705.5998684792334"/>
      <point x="148.3333333333334" y="698.6666666666666" type="curve"/>
      <point x="154.3333333333334" y="666.6666666666666"/>
      <point x="156.33333333333337" y="627.9999999999999"/>
      <point x="148.33333333333337" y="586.9999999999999" type="curve"/>
      <point x="123.07045351433335" y="448.55941859196673"/>
      <point x="54.000000000000014" y="337.33333333333337"/>
      <point x="27.333333333333336" y="193.66666666666666" type="curve" smooth="yes"/>
      <point x="10.333333333333343" y="101.33333333333333"/>
      <point x="90.66666666666667" y="0.0"/>
    </contour>
    <contour>
      <point x="382.9999999999999" y="271.0" type="curve"/>
      <point x="362.7986649647999" y="159.5279931924"/>
      <point x="333.47397506966666" y="86.42192520906664"/>
      <point x="315.66666666666663" y="27.33333333333334" type="curve"/>
      <point x="301.6666666666667" y="-17.666666666666668"/>
      <point x="346.3333333333334" y="-42.333333333333336"/>
      <point x="469.33333333333337" y="-42.333333333333336" type="curve"/>
      <point x="512.6666666666667" y="19.33333333333332"/>
      <point x="545.6666666666669" y="116.33333333333331"/>
      <point x="552.3333333333334" y="196.3333333333333" type="curve"/>
      <point x="556.0000000000001" y="253.66666666666666"/>
      <point x="535.6666666666666" y="281.0"/>
      <point x="461.99999999999983" y="281.0" type="curve" smooth="yes"/>
      <point x="431.66666666666663" y="281.0"/>
      <point x="405.6666666666667" y="277.66666666666663"/>
    </contour>
  </outline>
</glyph>
<glyph name="R" format="2">
  <advance width="600.0"/>
  <unicode hex="0052"/>
  <anchor x="406.86635347013333" y="711.0" name="top"/>
  <anchor x="267.00000000000006" y="-1.0" name="bottom"/>
  <outline>
    <contour>
      <point x="429.66666666666663" y="339.66666666666663" type="curve"/>
      <point x="300.0" y="218.99999999999997" type="line"/>
      <point x="297.33333333333337" y="166.66666666666666"/>
      <point x="302.3333333333333" y="117.00000000000001"/>
      <point x="315.33333333333337" y="69.33333333333331" type="curve" smooth="yes"/>
      <point x="330.6666666666667" y="12.666666666666668"/>
      <point x="369.0" y="-20.0"/>
      <point x="424.00000000000006" y="-20.0" type="curve" smooth="yes"/>
      <point x="449.33333333333326" y="-20.0"/>
      <point x="473.0" y="-10.666666666666666"/>
      <point x="492.33333333333337" y="8.666666666666666" type="curve" smooth="yes"/>
      <point x="512.6666666666666" y="28.999999999999996"/>
      <point x="528.6666666666667" y="58.99999999999999"/>
      <point x="539.0" y="100.66666666666666" type="curve" smooth="yes"/>
      <point x="548.3333333333334" y="137.33333333333334"/>
      <point x="550.6666666666667" y="158.33333333333331"/>
      <point x="550.6666666666666" y="188.66666666666666" type="curve"/>
      <point x="546.0" y="188.66666666666666" type="line"/>
      <point x="533.9999999999999" y="181.66666666666666"/>
      <point x="523.9999999999998" y="178.66666666666666"/>
      <point x="509.6666666666667" y="178.66666666666666" type="curve" smooth="yes"/>
      <point x="484.66666666666663" y="178.66666666666666"/>
      <point x="469.3333333333334" y="190.6666666666666"/>
      <point x="456.3333333333334" y="228.0" type="curve"/>
      <point x="444.3333333333333" y="262.0"/>
      <point x="435.33333333333326" y="300.33333333333337"/>
    </contour>
    <contour>
      <point x="127.66666666666669" y="700.0" type="curve"/>
      <point x="117.00000000000003" y="677.9999999999999"/>
      <point x="106.00000000000003" y="645.0"/>
      <point x="99.0" y="611.6666666666665" type="curve"/>
      <point x="82.66666666666667" y="538.3333333333334"/>
      <point x="90.0" y="505.0"/>
      <point x="124.33333333333331" y="505.0" type="curve" smooth="yes"/>
      <point x="146.4510802953333" y="505.0"/>
      <point x="227.64520743920005" y="524.9999999999999"/>
      <point x="341.66666666666663" y="524.9999999999999" type="curve"/>
      <point x="371.1855714906667" y="524.9999999999999"/>
      <point x="393.0" y="522.3333333333333"/>
      <point x="412.33333333333337" y="516.6666666666666" type="curve" smooth="yes"/>
      <point x="414.6666666666667" y="503.00000000000006"/>
      <point x="414.00000000000006" y="485.00000000000006"/>
      <point x="410.00000000000006" y="466.3333333333333" type="curve" smooth="yes"/>
      <point x="408.00000000000006" y="458.0" type="line" smooth="yes"/>
      <point x="391.6666666666667" y="386.3333333333333"/>
      <point x="350.66666666666663" y="352.00000000000006"/>
      <point x="304.66666666666663" y="352.00000000000006" type="curve"/>
      <point x="272.6666666666667" y="352.00000000000006"/>
      <point x="255.66666666666669" y="357.66666666666674"/>
      <point x="233.99999999999997" y="369.33333333333337" type="curve"/>
      <point x="189.66666666666666" y="184.3333333333333" type="line" smooth="yes"/>
      <point x="237.00000000000003" y="203.66666666666666" type="line"/>
      <point x="253.00000000000006" y="192.33333333333331"/>
      <point x="288.3333333333333" y="187.66666666666666"/>
      <point x="307.3333333333333" y="187.66666666666666" type="curve" smooth="yes"/>
      <point x="431.0" y="187.66666666666666"/>
      <point x="570.3333333333333" y="298.0"/>
      <point x="608.6666666666666" y="451.66666666666663" type="curve" smooth="yes"/>
      <point x="611.6666666666667" y="463.6666666666667" type="line" smooth="yes"/>
      <point x="645.6666666666666" y="600.3333333333334"/>
      <point x="565.0" y="720.0"/>
      <point x="357.00000000000006" y="720.0" type="curve"/>
      <point x="267.6666666666666" y="720.0"/>
      <point x="194.0" y="711.6666666666666"/>
    </contour>
    <contour>
      <point x="210.33333333333334" y="0.0" type="curve"/>
      <point x="205.33333333333334" y="31.666666666666664"/>
      <point x="205.00000000000003" y="68.99999999999999"/>
      <point x="209.33333333333331" y="110.00000000000003" type="curve"/>
      <point x="222.66666666666669" y="224.66666666666663"/>
      <point x="278.0000000000001" y="312.0"/>
      <point x="301.6666666666667" y="416.33333333333337" type="curve"/>
      <point x="313.3158770575" y="463.52701645990004"/>
      <point x="310.00000000000006" y="497.66666666666674"/>
      <point x="292.0" y="518.6666666666667" type="curve" smooth="yes"/>
      <point x="304.6666666666667" y="540.0" type="line"/>
      <point x="142.33333333333334" y="533.9999999999999" type="line"/>
      <point x="117.66666666666669" y="359.33333333333337"/>
      <point x="45.33333333333333" y="266.0"/>
      <point x="21.0" y="112.33333333333334" type="curve" smooth="yes"/>
      <point x="9.333333333333332" y="35.66666666666667"/>
      <point x="42.666666666666664" y="-9.333333333333332"/>
      <point x="131.33333333333337" y="-9.333333333333332" type="curve" smooth="yes"/>
      <point x="159.33333333333331" y="-9.333333333333332"/>
      <point x="187.66666666666666" y="-5.333333333333333"/>
    </contour>
  </outline>
</glyph>
<glyph name="asciicircum" format="2">
  <advance width="600.0"/>
  <unicode hex="005E"/>
  <outline>
    <contour>
      <point x="372.00000000000006" y="756.0" type="curve"/>
      <point x="289.66666666666663" y="705.3333333333333"/>
      <point x="174.00000000000003" y="590.6666666666667"/>
      <point x="100.66666666666666" y="482.33333333333337" type="curve" smooth="yes"/>
      <point x="77.0" y="448.3333333333333"/>
      <point x="66.33333333333334" y="426.6666666666667"/>
      <point x="61.333333333333336" y="405.3333333333333" type="curve" smooth="yes"/>
      <point x="51.66666666666667" y="363.99999999999994"/>
      <point x="89.0" y="341.0"/>
      <point x="171.99999999999997" y="341.0" type="curve" smooth="yes"/>
      <point x="201.33333333333334" y="341.0" type="line"/>
      <point x="255.0" y="450.33333333333337"/>
      <point x="308.99999999999994" y="526.0"/>
      <point x="396.0" y="610.6666666666667" type="curve"/>
      <point x="341.99999999999994" y="589.0" type="line"/>
      <point x="408.6666666666667" y="589.0" type="line" smooth="yes"/>
      <point x="365.33333333333337" y="610.6666666666666" type="line"/>
      <point x="398.99999999999994" y="545.0"/>
      <point x="415.3333333333333" y="485.66666666666663"/>
      <point x="422.3333333333334" y="413.33333333333337" type="curve" smooth="yes"/>
      <point x="426.66666666666674" y="363.0"/>
      <point x="447.6666666666667" y="346.0"/>
      <point x="511.00000000000006" y="346.0" type="curve" smooth="yes"/>
      <point x="542.3333333333333" y="346.0"/>
      <point x="563.6666666666667" y="350.3333333333333"/>
      <point x="585.0000000000001" y="359.3333333333333" type="curve"/>
      <point x="578.0" y="495.6666666666667"/>
      <point x="539.3333333333334" y="628.6666666666667"/>
      <point x="492.6666666666666" y="707.6666666666666" type="curve" smooth="yes"/>
      <point x="465.00000000000006" y="753.6666666666666"/>
      <point x="443.33333333333326" y="760.0"/>
      <point x="415.3333333333333" y="760.0" type="curve" smooth="yes"/>
      <point x="403.0" y="760.0"/>
      <point x="387.6666666666667" y="759.3333333333334"/>
    </contour>
  </outline>
</glyph>
<glyph name="underscore" format="2">
  <advance width="600.0"/>
  <unicode hex="005F"/>
  <outline>
    <contour>
      <point x="-38.666666666666664" y="-30.00000000000001" type="line"/>
      <point x="-40.66666666666667" y="-38.0"/>
      <point x="-42.666666666666664" y="-45.000000000000014"/>
      <point x="-44.66666666666667" y="-53.66666666666666" type="curve" smooth="yes"/>
      <point x="-77.00000000000001" y="-182.0"/>
      <point x="-54.999999999999986" y="-219.33333333333331"/>
      <point x="55.66666666666666" y="-219.33333333333331" type="curve" smooth="yes"/>
      <point x="427.9999999999999" y="-219.33333333333331" type="line"/>
      <point x="440.99999999999994" y="-192.66666666666663"/>
      <point x="453.0" y="-163.00000000000003"/>
      <point x="460.0" y="-135.66666666666669" type="curve" smooth="yes"/>
      <point x="478.6666666666667" y="-62.33333333333334"/>
      <point x="456.6666666666667" y="-30.00000000000001"/>
      <point x="388.66666666666663" y="-30.00000000000001" type="curve" smooth="yes"/>
    </contour>
  </outline>
</glyph>
<glyph name="f" format="2">
  <advance width="600.0"/>
  <unicode hex="0066"/>
  <outline>
    <contour>
      <point x="66.99999999999999" y="442.0" type="line"/>
      <point x="64.66666666666667" y="436.0"/>
      <point x="63.346573326000005" y="430.0463399743667"/>
      <point x="61.33333333333333" y="423.0" type="curve" smooth="yes"/>
      <point x="35.66666666666669" y="322.6666666666667"/>
      <point x="99.0" y="263.00000000000006"/>
      <point x="212.6666666666667" y="263.00000000000006" type="curve" smooth="yes"/>
      <point x="552.6666666666667" y="263.00000000000006" type="line"/>
      <point x="561.6666666666667" y="280.66666666666663"/>
      <point x="569.3333333333334" y="302.3333333333333"/>
      <point x="574.3333333333334" y="324.3333333333333" type="curve" smooth="yes"/>
      <point x="590.3333333333331" y="406.0"/>
      <point x="558.3333333333335" y="442.0"/>
      <point x="469.33333333333337" y="442.0" type="curve" smooth="yes"/>
    </contour>
    <contour>
      <point x="516.6666666666667" y="770.0" type="curve" smooth="yes"/>
      <point x="378.3333333333333" y="770.0"/>
      <point x="273.0" y="696.6666666666667"/>
      <point x="230.0" y="556.3333333333334" type="curve" smooth="yes"/>
      <point x="163.99999999999994" y="339.0"/>
      <point x="164.99999999999991" y="173.33333333333331"/>
      <point x="82.99999999999997" y="-39.66666666666667" type="curve" smooth="yes"/>
      <point x="59.333333333333286" y="-101.33333333333331"/>
      <point x="32.66666666666664" y="-152.3333333333333"/>
      <point x="7.999999999999968" y="-183.66666666666669" type="curve"/>
      <point x="36.999999999999986" y="-194.33333333333334"/>
      <point x="75.33333333333337" y="-200.0"/>
      <point x="109.00000000000003" y="-200.0" type="curve" smooth="yes"/>
      <point x="191.33333333333331" y="-200.0"/>
      <point x="245.0" y="-159.66666666666666"/>
      <point x="282.6666666666667" y="-68.33333333333334" type="curve" smooth="yes"/>
      <point x="343.66666666666674" y="82.33333333333329"/>
      <point x="347.66666666666663" y="261.99999999999994"/>
      <point x="406.0" y="476.6666666666666" type="curve" smooth="yes"/>
      <point x="420.66666666666663" y="528.9999999999999"/>
      <point x="433.66666666666674" y="558.6666666666667"/>
      <point x="448.9999999999999" y="575.3333333333333" type="curve" smooth="yes"/>
      <point x="461.9999999999999" y="589.6666666666667"/>
      <point x="480.66666666666674" y="594.6666666666666"/>
      <point x="512.3333333333334" y="594.6666666666666" type="curve" smooth="yes"/>
      <point x="513.3333333333333" y="594.6666666666666"/>
      <point x="516.6666666666666" y="594.6666666666666"/>
      <point x="517.6666666666669" y="594.6666666666666" type="curve"/>
      <point x="515.0" y="580.0000000000003"/>
      <point x="509.6666666666667" y="562.3333333333333"/>
      <point x="502.33333333333326" y="544.0000000000001" type="curve"/>
      <point x="501.6666666666666" y="538.0000000000002" type="line"/>
      <point x="513.3333333333333" y="535.0000000000001"/>
      <point x="527.6666666666666" y="533.0000000000002"/>
      <point x="541.0" y="533.0000000000002" type="curve" smooth="yes"/>
      <point x="598.6666666666664" y="533.0000000000002"/>
      <point x="653.6666666666666" y="578.3333333333333"/>
      <point x="668.3333333333333" y="635.6666666666666" type="curve" smooth="yes"/>
      <point x="670.0000000000001" y="642.3333333333334" type="line"/>
      <point x="677.6666666666667" y="674.6666666666666"/>
      <point x="660.6666666666667" y="704.0"/>
      <point x="633.3333333333333" y="731.3333333333336" type="curve" smooth="yes"/>
      <point x="607.9999999999997" y="756.0"/>
      <point x="567.3333333333334" y="770.0"/>
    </contour>
  </outline>
</glyph>
<glyph name="g" format="2">
  <advance width="600.0"/>
  <unicode hex="0067"/>
  <outline>
    <contour>
      <point x="282.33333333333337" y="558.6666666666667" type="curve" smooth="yes"/>
      <point x="164.0" y="558.6666666666667"/>
      <point x="80.66666666666669" y="466.33333333333337"/>
      <point x="34.33333333333333" y="275.6666666666667" type="curve" smooth="yes"/>
      <point x="28.0" y="249.66666666666669" type="line" smooth="yes"/>
      <point x="3.0000000000000004" y="146.00000000000003"/>
      <point x="54.33333333333333" y="26.000000000000004"/>
      <point x="140.0" y="26.000000000000004" type="curve" smooth="yes"/>
      <point x="205.0" y="26.000000000000004"/>
      <point x="285.66666666666663" y="81.3333333333333"/>
      <point x="332.6666666666667" y="159.99999999999997" type="curve"/>
      <point x="363.99999999999994" y="159.99999999999997" type="line"/>
      <point x="386.33333333333337" y="283.3333333333334" type="line"/>
      <point x="338.6666666666667" y="226.66666666666666"/>
      <point x="291.00000000000006" y="211.66666666666669"/>
      <point x="246.0" y="211.66666666666669" type="curve" smooth="yes"/>
      <point x="237.99999999999997" y="211.66666666666669"/>
      <point x="230.33333333333331" y="212.33333333333334"/>
      <point x="223.66666666666663" y="214.66666666666669" type="curve" smooth="yes"/>
      <point x="225.99999999999997" y="235.3333333333333"/>
      <point x="230.99999999999997" y="259.33333333333326"/>
      <point x="238.33333333333331" y="286.3333333333333" type="curve" smooth="yes"/>
      <point x="241.33333333333331" y="296.9999999999999" type="line" smooth="yes"/>
      <point x="263.3333333333333" y="375.6666666666667"/>
      <point x="292.33333333333337" y="398.33333333333337"/>
      <point x="332.6666666666668" y="398.33333333333337" type="curve" smooth="yes"/>
      <point x="369.0" y="398.33333333333337"/>
      <point x="397.00000000000006" y="388.33333333333337"/>
      <point x="412.33333333333337" y="369.99999999999994" type="curve"/>
      <point x="439.3333333333333" y="460.6666666666667" type="line"/>
      <point x="409.66666666666663" y="460.6666666666667" type="line"/>
      <point x="391.99999999999994" y="516.0"/>
      <point x="352.3333333333333" y="558.6666666666667"/>
    </contour>
    <contour>
      <point x="455.3333333333334" y="548.6666666666666" type="curve"/>
      <point x="433.6666666666667" y="509.6666666666666"/>
      <point x="415.6666666666667" y="465.6666666666667"/>
      <point x="401.0" y="416.6666666666667" type="curve" smooth="yes"/>
      <point x="366.3333333333333" y="302.33333333333337"/>
      <point x="358.00000000000006" y="215.66666666666669"/>
      <point x="327.33333333333337" y="117.99999999999999" type="curve" smooth="yes"/>
      <point x="306.00000000000006" y="48.66666666666666"/>
      <point x="293.66666666666663" y="19.666666666666657"/>
      <point x="269.6666666666667" y="-15.33333333333334" type="curve" smooth="yes"/>
      <point x="236.33333333333331" y="-22.00000000000001"/>
      <point x="205.33333333333331" y="-24.66666666666669"/>
      <point x="179.0" y="-24.66666666666669" type="curve" smooth="yes"/>
      <point x="110.66666666666664" y="-24.66666666666669"/>
      <point x="48.33333333333332" y="-9.333333333333343"/>
      <point x="12.333333333333341" y="9.666666666666647" type="curve"/>
      <point x="6.333333333333343" y="9.666666666666647" type="line"/>
      <point x="-8.33333333333333" y="-15.66666666666667"/>
      <point x="-18.999999999999986" y="-39.0"/>
      <point x="-24.99999999999999" y="-60.33333333333334" type="curve" smooth="yes"/>
      <point x="-37.66666666666665" y="-104.0"/>
      <point x="-33.999999999999986" y="-138.66666666666666"/>
      <point x="-11.999999999999991" y="-162.66666666666666" type="curve" smooth="yes"/>
      <point x="11.000000000000007" y="-187.66666666666666"/>
      <point x="50.666666666666664" y="-205.0"/>
      <point x="145.66666666666663" y="-205.0" type="curve" smooth="yes"/>
      <point x="304.66666666666663" y="-205.0"/>
      <point x="439.6666666666667" y="-120.0"/>
      <point x="488.0" y="13.666666666666664" type="curve" smooth="yes"/>
      <point x="531.0" y="131.66666666666669"/>
      <point x="545.3333333333334" y="266.6666666666667"/>
      <point x="595.3333333333334" y="400.00000000000006" type="curve" smooth="yes"/>
      <point x="629.3333333333334" y="488.99999999999994"/>
      <point x="589.6666666666665" y="554.0"/>
      <point x="500.6666666666665" y="554.0" type="curve" smooth="yes"/>
      <point x="485.0" y="554.0"/>
      <point x="468.6666666666667" y="552.0"/>
    </contour>
  </outline>
</glyph>
<glyph name="q" format="2">
  <advance width="600.0"/>
  <unicode hex="0071"/>
  <outline>
    <contour>
      <point x="425.0000000000001" y="546.6666666666666" type="curve"/>
      <point x="423.00000000000006" y="502.3333333333333"/>
      <point x="415.6666666666668" y="455.0"/>
      <point x="406.33333333333337" y="410.99999999999994" type="curve"/>
      <point x="372.00000000000006" y="256.33333333333337"/>
      <point x="303.66666666666674" y="129.33333333333334"/>
      <point x="265.3333333333333" y="-30.33333333333335" type="curve"/>
      <point x="240.33333333333334" y="-133.0"/>
      <point x="284.6666666666667" y="-200.0"/>
      <point x="381.00000000000006" y="-200.0" type="curve" smooth="yes"/>
      <point x="404.3333333333333" y="-200.0"/>
      <point x="427.33159122553326" y="-197.18886026"/>
      <point x="448.66666666666674" y="-191.66666666666669" type="curve"/>
      <point x="440.33333333333326" y="-154.0"/>
      <point x="446.33333333333326" y="-116.66666666666664"/>
      <point x="455.6666666666666" y="-70.0" type="curve" smooth="yes"/>
      <point x="481.99999999999994" y="65.00000000000001"/>
      <point x="541.3333333333331" y="185.33333333333334"/>
      <point x="586.3333333333331" y="364.3333333333334" type="curve"/>
      <point x="622.3333333333331" y="505.99999999999994"/>
      <point x="584.6244725738667" y="556.0"/>
      <point x="493.3333333333331" y="556.0" type="curve"/>
      <point x="469.34304207120005" y="556.0"/>
      <point x="447.00000000000006" y="552.6666666666666"/>
    </contour>
    <contour>
      <point x="335.0" y="112.33333333333333" type="line"/>
      <point x="389.6666666666667" y="290.6666666666667" type="line"/>
      <point x="322.66666666666663" y="203.33333333333331"/>
      <point x="276.99999999999994" y="177.33333333333334"/>
      <point x="238.33333333333331" y="177.33333333333334" type="curve" smooth="yes"/>
      <point x="229.33333333333334" y="177.33333333333334"/>
      <point x="220.66666666666666" y="178.99999999999997"/>
      <point x="214.33333333333337" y="182.66666666666663" type="curve" smooth="yes"/>
      <point x="215.33333333333334" y="206.66666666666666"/>
      <point x="219.66666666666666" y="227.0"/>
      <point x="227.66666666666666" y="255.33333333333331" type="curve" smooth="yes"/>
      <point x="230.66666666666669" y="265.6666666666667" type="line" smooth="yes"/>
      <point x="261.0" y="371.00000000000006"/>
      <point x="293.0" y="400.33333333333337"/>
      <point x="337.0" y="400.33333333333337" type="curve" smooth="yes"/>
      <point x="366.6666666666667" y="400.33333333333337"/>
      <point x="396.3333333333334" y="390.66666666666663"/>
      <point x="418.0" y="369.3333333333333" type="curve"/>
      <point x="444.0" y="471.33333333333337" type="line"/>
      <point x="409.66666666666663" y="467.00000000000006" type="line"/>
      <point x="391.190445674" y="519.3016991953333"/>
      <point x="352.0" y="558.6666666666667"/>
      <point x="284.99999999999994" y="558.6666666666667" type="curve" smooth="yes"/>
      <point x="166.66666666666669" y="558.6666666666667"/>
      <point x="81.00000000000001" y="460.00000000000006"/>
      <point x="24.000000000000007" y="238.66666666666669" type="curve" smooth="yes"/>
      <point x="17.000000000000007" y="211.66666666666669" type="line" smooth="yes"/>
      <point x="-12.0" y="96.66666666666666"/>
      <point x="40.66666666666668" y="-10.666666666666666"/>
      <point x="123.66666666666669" y="-10.666666666666666" type="curve" smooth="yes"/>
      <point x="187.32323232323336" y="-10.666666666666666"/>
      <point x="259.8257561768333" y="47.61089375533334"/>
      <point x="305.33333333333337" y="123.3333333333333" type="curve"/>
    </contour>
  </outline>
</glyph>
<glyph name="r" format="2">
  <advance width="600.0"/>
  <unicode hex="0072"/>
  <outline>
    <contour>
      <point x="87.66666666666667" y="529.6666666666666" type="curve"/>
      <point x="72.66666666666667" y="504.33333333333337"/>
      <point x="62.0" y="476.66666666666674"/>
      <point x="54.33333333333333" y="443.0" type="curve" smooth="yes"/>
      <point x="33.0" y="355.0"/>
      <point x="44.66666666666668" y="312.0"/>
      <point x="77.66666666666669" y="312.0" type="curve" smooth="yes"/>
      <point x="100.33333333333337" y="312.0"/>
      <point x="122.66666666666669" y="323.3333333333333"/>
      <point x="155.66666666666669" y="370.99999999999994" type="curve"/>
      <point x="162.33333333333334" y="367.3333333333334" type="line"/>
      <point x="146.99999999999997" y="287.00000000000006"/>
      <point x="110.33333333333331" y="215.66666666666666"/>
      <point x="92.99999999999999" y="147.66666666666669" type="curve" smooth="yes"/>
      <point x="72.33333333333331" y="63.66666666666666"/>
      <point x="112.3333333333333" y="-9.333333333333332"/>
      <point x="210.33333333333337" y="-9.333333333333332" type="curve" smooth="yes"/>
      <point x="234.0" y="-9.333333333333332"/>
      <point x="255.33333333333337" y="-6.333333333333332"/>
      <point x="275.99999999999994" y="0.0" type="curve"/>
      <point x="266.33333333333326" y="31.333333333333336"/>
      <point x="266.66666666666663" y="66.33333333333333"/>
      <point x="274.66666666666663" y="117.33333333333331" type="curve" smooth="yes"/>
      <point x="289.66666666666663" y="216.33333333333337"/>
      <point x="333.33333333333337" y="294.3333333333333"/>
      <point x="358.3333333333333" y="381.66666666666663" type="curve" smooth="yes"/>
      <point x="379.0" y="453.3333333333333"/>
      <point x="345.3333333333333" y="556.6666666666666"/>
      <point x="228.00000000000006" y="556.6666666666666" type="curve" smooth="yes"/>
      <point x="176.6666666666667" y="556.6666666666666"/>
      <point x="123.99999999999999" y="544.3333333333333"/>
    </contour>
    <contour>
      <point x="529.6666666666667" y="566.6666666666669" type="curve"/>
      <point x="481.0" y="566.6666666666669"/>
      <point x="420.6666666666667" y="508.33333333333337"/>
      <point x="368.0" y="398.6666666666667" type="curve"/>
      <point x="348.66666666666663" y="405.00000000000006" type="line"/>
      <point x="293.33333333333326" y="221.66666666666666" type="line"/>
      <point x="337.66666666666686" y="309.66666666666674"/>
      <point x="384.0" y="339.00000000000006"/>
      <point x="420.0" y="339.00000000000006" type="curve" smooth="yes"/>
      <point x="424.6666666666667" y="339.00000000000006"/>
      <point x="431.6666666666667" y="338.3333333333333"/>
      <point x="436.33333333333326" y="336.3333333333333" type="curve"/>
      <point x="436.3333333333333" y="315.33333333333337"/>
      <point x="432.3333333333334" y="290.0"/>
      <point x="424.3333333333334" y="268.00000000000006" type="curve"/>
      <point x="424.33333333333337" y="262.0" type="line"/>
      <point x="438.3333333333333" y="258.0"/>
      <point x="450.0000000000001" y="257.3333333333333"/>
      <point x="467.0000000000001" y="257.3333333333333" type="curve"/>
      <point x="550.0000000000002" y="257.3333333333333"/>
      <point x="596.0000000000002" y="320.0"/>
      <point x="608.6666666666667" y="373.33333333333337" type="curve" smooth="yes"/>
      <point x="613.0" y="389.99999999999994" type="line" smooth="yes"/>
      <point x="625.0" y="441.33333333333326"/>
      <point x="621.3333333333334" y="506.33333333333337"/>
      <point x="584.0000000000002" y="543.3333333333334" type="curve" smooth="yes"/>
      <point x="567.6666666666667" y="559.6666666666669"/>
      <point x="550.6666666666666" y="566.6666666666669"/>
    </contour>
  </outline>
</glyph>
<glyph name="x" format="2">
  <advance width="600.0"/>
  <unicode hex="0078"/>
  <outline>
    <contour>
      <point x="94.33333333333333" y="538.6666666666665" type="curve"/>
      <point x="77.33333333333333" y="511.6666666666667"/>
      <point x="65.33333333333334" y="483.6666666666667"/>
      <point x="57.000000000000014" y="448.66666666666674" type="curve" smooth="yes"/>
      <point x="41.000000000000014" y="380.0"/>
      <point x="55.666666666666686" y="349.33333333333337"/>
      <point x="97.33333333333331" y="349.33333333333337" type="curve" smooth="yes"/>
      <point x="119.66666666666663" y="349.33333333333337"/>
      <point x="147.6666666666667" y="365.6666666666667"/>
      <point x="173.33333333333334" y="406.6666666666667" type="curve"/>
      <point x="180.00000000000003" y="405.33333333333337" type="line"/>
      <point x="191.66666666666669" y="302.00000000000006"/>
      <point x="219.66666666666669" y="174.66666666666663"/>
      <point x="259.6666666666667" y="90.66666666666667" type="curve" smooth="yes"/>
      <point x="291.0" y="24.333333333333336"/>
      <point x="338.33333333333337" y="-10.666666666666666"/>
      <point x="408.3333333333333" y="-10.666666666666666" type="curve" smooth="yes"/>
      <point x="442.6666666666667" y="-10.666666666666666"/>
      <point x="475.00000000000006" y="-1.666666666666666"/>
      <point x="499.66666666666663" y="23.666666666666657" type="curve" smooth="yes"/>
      <point x="520.6666666666669" y="45.33333333333333"/>
      <point x="535.6666666666667" y="80.66666666666666"/>
      <point x="546.3333333333335" y="128.0" type="curve" smooth="yes"/>
      <point x="553.0000000000002" y="157.33333333333331"/>
      <point x="556.0000000000002" y="177.33333333333331"/>
      <point x="557.6666666666667" y="206.33333333333337" type="curve"/>
      <point x="551.6666666666667" y="206.33333333333337" type="line"/>
      <point x="508.9999999999999" y="180.33333333333334"/>
      <point x="469.66666666666663" y="165.66666666666669"/>
      <point x="431.66666666666663" y="161.33333333333334" type="curve" smooth="yes"/>
      <point x="410.99999999999994" y="185.33333333333337"/>
      <point x="395.6666666666667" y="217.66666666666663"/>
      <point x="383.66666666666663" y="257.0" type="curve" smooth="yes"/>
      <point x="366.66666666666663" y="312.3333333333333"/>
      <point x="354.66666666666674" y="384.6666666666666"/>
      <point x="349.0" y="446.33333333333337" type="curve" smooth="yes"/>
      <point x="342.3333333333333" y="517.6666666666667"/>
      <point x="296.3333333333334" y="556.6666666666666"/>
      <point x="237.0" y="556.6666666666666" type="curve" smooth="yes"/>
      <point x="178.66666666666666" y="556.6666666666666"/>
      <point x="134.66666666666669" y="550.3333333333333"/>
    </contour>
    <contour>
      <point x="329.0" y="355.3333333333333" type="line"/>
      <point x="371.6666666666666" y="244.0" type="line"/>
      <point x="438.99999999999994" y="307.0"/>
      <point x="534.0" y="368.0000000000001"/>
      <point x="617.9999999999999" y="405.33333333333326" type="curve"/>
      <point x="639.7593119493333" y="490.18090847153337"/>
      <point x="618.6666666666666" y="561.3333333333334"/>
      <point x="545.3333333333334" y="561.3333333333334" type="curve" smooth="yes"/>
      <point x="500.33333333333337" y="561.3333333333334"/>
      <point x="469.6666666666667" y="542.6666666666667"/>
      <point x="444.66666666666663" y="508.3333333333334" type="curve" smooth="yes"/>
      <point x="412.99999999999994" y="464.66666666666674"/>
      <point x="386.58988667296666" y="409.56441734719994"/>
      <point x="368.66666666666663" y="355.3333333333333" type="curve"/>
    </contour>
    <contour>
      <point x="235.33333333333334" y="297.3333333333333" type="line"/>
      <point x="133.33333333333334" y="224.66666666666663"/>
      <point x="32.66666666666667" y="159.33333333333331"/>
      <point x="-31.333333333333336" y="96.00000000000001" type="curve"/>
      <point x="-24.032833351799997" y="30.6446832835"/>
      <point x="14.542740110333343" y="-10.0"/>
      <point x="67.3333333333333" y="-10.0" type="curve" smooth="yes"/>
      <point x="105.66666666666666" y="-10.0"/>
      <point x="133.0" y="4.440892098500626e-16"/>
      <point x="155.33333333333334" y="24.33333333333334" type="curve" smooth="yes"/>
      <point x="183.99999999999997" y="56.00000000000001"/>
      <point x="203.33333333333334" y="104.0"/>
      <point x="219.99999999999997" y="169.33333333333334" type="curve"/>
      <point x="280.0" y="169.33333333333334" type="line"/>
    </contour>
  </outline>
</glyph>
<glyph name="y" format="2">
  <advance width="600.0"/>
  <unicode hex="0079"/>
  <outline>
    <contour>
      <point x="97.33333333333334" y="547.0" type="curve"/>
      <point x="106.33333333333334" y="504.00000000000006"/>
      <point x="105.00000000000001" y="455.99999999999994"/>
      <point x="91.0" y="401.0" type="curve" smooth="yes"/>
      <point x="72.66666666666667" y="332.66666666666674"/>
      <point x="39.33333333333334" y="269.99999999999994"/>
      <point x="22.666666666666682" y="201.66666666666669" type="curve" smooth="yes"/>
      <point x="4.333333333333345" y="129.0"/>
      <point x="50.0" y="34.666666666666664"/>
      <point x="134.66666666666669" y="34.666666666666664" type="curve" smooth="yes"/>
      <point x="195.00000000000003" y="34.666666666666664"/>
      <point x="287.00000000000006" y="91.6666666666667"/>
      <point x="327.33333333333337" y="153.66666666666666" type="curve"/>
      <point x="377.33333333333337" y="153.66666666666666" type="line"/>
      <point x="391.00000000000006" y="305.66666666666663" type="line"/>
      <point x="340.00000000000006" y="236.66666666666663"/>
      <point x="283.66666666666663" y="209.33333333333331"/>
      <point x="241.0" y="209.33333333333331" type="curve" smooth="yes"/>
      <point x="223.33333333333331" y="209.33333333333331"/>
      <point x="207.33333333333331" y="212.33333333333334"/>
      <point x="198.33333333333331" y="221.0" type="curve" smooth="yes"/>
      <point x="243.99999999999997" y="273.3333333333333"/>
      <point x="276.66666666666674" y="331.33333333333337"/>
      <point x="292.6666666666667" y="401.33333333333337" type="curve" smooth="yes"/>
      <point x="312.0" y="479.99999999999983"/>
      <point x="285.3333333333333" y="556.3333333333334"/>
      <point x="182.33333333333331" y="556.3333333333334" type="curve" smooth="yes"/>
      <point x="151.66666666666669" y="556.3333333333334"/>
      <point x="124.33333333333331" y="552.9999999999999"/>
    </contour>
    <contour>
      <point x="414.66666666666663" y="547.6666666666666" type="curve"/>
      <point x="405.6666666666667" y="388.66666666666663"/>
      <point x="363.33333333333337" y="231.99999999999997"/>
      <point x="306.00000000000006" y="79.33333333333334" type="curve" smooth="yes"/>
      <point x="291.00000000000006" y="39.99999999999999"/>
      <point x="277.33333333333337" y="13.666666666666655"/>
      <point x="258.33333333333337" y="-10.000000000000005" type="curve" smooth="yes"/>
      <point x="231.33333333333334" y="-16.666666666666675"/>
      <point x="198.00000000000003" y="-19.66666666666669"/>
      <point x="168.66666666666663" y="-19.66666666666669" type="curve" smooth="yes"/>
      <point x="105.66666666666664" y="-19.66666666666669"/>
      <point x="43.33333333333333" y="-6.333333333333339"/>
      <point x="2.6666666666666754" y="14.666666666666648" type="curve"/>
      <point x="-3.3333333333333157" y="14.666666666666648" type="line"/>
      <point x="-18.66666666666665" y="-7.3333333333333535"/>
      <point x="-27.999999999999982" y="-27.33333333333333"/>
      <point x="-33.33333333333332" y="-46.66666666666666" type="curve" smooth="yes"/>
      <point x="-45.333333333333314" y="-91.00000000000003"/>
      <point x="-40.99999999999998" y="-126.33333333333334"/>
      <point x="-19.000000000000004" y="-154.33333333333331" type="curve" smooth="yes"/>
      <point x="3.333333333333345" y="-180.66666666666669"/>
      <point x="39.00000000000002" y="-200.0"/>
      <point x="133.33333333333334" y="-200.0" type="curve" smooth="yes"/>
      <point x="292.33333333333326" y="-200.0"/>
      <point x="415.66666666666674" y="-110.33333333333334"/>
      <point x="469.66666666666674" y="14.666666666666666" type="curve" smooth="yes"/>
      <point x="528.3333333333334" y="143.0"/>
      <point x="573.0" y="281.6666666666667"/>
      <point x="596.6666666666666" y="440.99999999999994" type="curve" smooth="yes"/>
      <point x="605.3333333333334" y="499.99999999999994"/>
      <point x="572.3333333333331" y="553.6666666666666"/>
      <point x="480.6666666666666" y="553.6666666666666" type="curve" smooth="yes"/>
      <point x="457.3333333333332" y="553.6666666666666"/>
      <point x="437.0" y="551.3333333333333"/>
    </contour>
  </outline>
</glyph>
<glyph name="asciitilde" format="2">
  <advance width="600.0"/>
  <unicode hex="007E"/>
  <outline>
    <contour>
      <point x="447.00000000000006" y="348.33333333333326" type="curve" smooth="yes"/>
      <point x="362.3333333333333" y="348.33333333333326"/>
      <point x="298.0" y="473.3333333333333"/>
      <point x="202.66666666666669" y="473.3333333333333" type="curve" smooth="yes"/>
      <point x="152.99999999999997" y="473.3333333333333"/>
      <point x="118.33333333333331" y="451.6666666666667"/>
      <point x="86.33333333333333" y="393.00000000000006" type="curve" smooth="yes"/>
      <point x="66.33333333333333" y="362.3333333333333"/>
      <point x="54.33333333333333" y="318.0"/>
      <point x="48.33333333333335" y="282.6666666666667" type="curve" smooth="yes"/>
      <point x="42.0" y="245.00000000000003"/>
      <point x="43.0" y="220.33333333333334"/>
      <point x="47.33333333333333" y="192.66666666666669" type="curve"/>
      <point x="53.33333333333334" y="192.66666666666669" type="line"/>
      <point x="90.66666666666667" y="233.6666666666667"/>
      <point x="119.0" y="251.66666666666666"/>
      <point x="166.0" y="251.66666666666666" type="curve" smooth="yes"/>
      <point x="253.00000000000003" y="251.66666666666666"/>
      <point x="313.0" y="126.66666666666664"/>
      <point x="403.3333333333333" y="126.66666666666664" type="curve" smooth="yes"/>
      <point x="452.3333333333333" y="126.66666666666664"/>
      <point x="492.33333333333337" y="148.33333333333334"/>
      <point x="524.6666666666665" y="207.33333333333331" type="curve" smooth="yes"/>
      <point x="543.3333333333333" y="236.66666666666666"/>
      <point x="558.0" y="274.66666666666663"/>
      <point x="563.3333333333334" y="316.66666666666663" type="curve" smooth="yes"/>
      <point x="568.6666666666666" y="357.33333333333337"/>
      <point x="567.3333333333335" y="382.66666666666663"/>
      <point x="564.0" y="407.33333333333326" type="curve"/>
      <point x="558.0" y="407.33333333333326" type="line"/>
      <point x="523.0" y="362.33333333333326"/>
      <point x="490.6666666666667" y="348.33333333333326"/>
    </contour>
  </outline>
</glyph>
<glyph name="twosuperior" format="2">
  <advance width="600.0"/>
  <unicode hex="00B2"/>
  <outline>
    <contour>
      <point x="466.33333333333337" y="372.6666666666667" type="curve"/>
      <point x="475.3333333333333" y="388.6666666666667"/>
      <point x="483.3333333333333" y="405.3333333333333"/>
      <point x="488.0" y="423.66666666666663" type="curve" smooth="yes"/>
      <point x="496.3333333333333" y="455.3333333333333"/>
      <point x="483.6666666666667" y="478.3333333333333"/>
      <point x="434.33333333333337" y="478.3333333333333" type="curve"/>
      <point x="384.99999999999994" y="478.3333333333333" type="line" smooth="yes"/>
      <point x="341.0" y="478.3333333333333"/>
      <point x="314.66666666666663" y="473.0"/>
      <point x="276.66666666666663" y="450.99999999999994" type="curve"/>
      <point x="321.6666666666667" y="459.00000000000006" type="line"/>
      <point x="288.66666666666663" y="480.3333333333333" type="line"/>
      <point x="290.3333333333334" y="439.6666666666667" type="line"/>
      <point x="308.3333333333333" y="486.3333333333333"/>
      <point x="326.6666666666667" y="501.3333333333333"/>
      <point x="410.66666666666663" y="529.0000000000001" type="curve" smooth="yes"/>
      <point x="482.00000000000006" y="552.3333333333333"/>
      <point x="524.3333333333334" y="580.6666666666669"/>
      <point x="534.0000000000001" y="640.0000000000001" type="curve" smooth="yes"/>
      <point x="535.3333333333335" y="648.0" type="line" smooth="yes"/>
      <point x="545.0" y="705.3333333333334"/>
      <point x="499.3333333333333" y="752.0"/>
      <point x="397.6666666666667" y="752.0" type="curve" smooth="yes"/>
      <point x="339.0" y="752.0"/>
      <point x="308.66666666666663" y="745.3333333333334"/>
      <point x="284.33333333333337" y="728.0" type="curve" smooth="yes"/>
      <point x="262.0" y="712.3333333333334"/>
      <point x="254.33333333333331" y="690.3333333333334"/>
      <point x="250.33333333333331" y="668.6666666666666" type="curve" smooth="yes"/>
      <point x="246.99999999999991" y="649.9999999999999"/>
      <point x="248.33333333333331" y="632.6666666666667"/>
      <point x="251.99999999999997" y="620.0" type="curve"/>
      <point x="258.00000000000006" y="620.0" type="line"/>
      <point x="285.3333333333333" y="635.9999999999999"/>
      <point x="318.6666666666667" y="644.3333333333334"/>
      <point x="357.33333333333337" y="644.3333333333334" type="curve" smooth="yes"/>
      <point x="380.33333333333337" y="644.3333333333334"/>
      <point x="397.6666666666667" y="642.3333333333333"/>
      <point x="409.00000000000006" y="639.3333333333331" type="curve" smooth="yes"/>
      <point x="410.6666666666668" y="634.0"/>
      <point x="410.66666666666663" y="627.9999999999999"/>
      <point x="407.66666666666663" y="621.6666666666667" type="curve" smooth="yes"/>
      <point x="404.0" y="611.6666666666667"/>
      <point x="388.00000000000006" y="604.3333333333334"/>
      <point x="332.33333333333326" y="584.0" type="curve" smooth="yes"/>
      <point x="236.33333333333331" y="550.0"/>
      <point x="205.0" y="506.9999999999999"/>
      <point x="192.33333333333331" y="450.6666666666667" type="curve" smooth="yes"/>
      <point x="189.33333333333331" y="437.66666666666663" type="line" smooth="yes"/>
      <point x="179.33333333333331" y="393.3333333333333"/>
      <point x="194.66666666666666" y="372.6666666666667"/>
      <point x="225.0" y="372.6666666666667" type="curve" smooth="yes"/>
      <point x="255.33333333333334" y="372.6666666666667"/>
      <point x="448.3333333333333" y="372.6666666666667"/>
    </contour>
  </outline>
</glyph>
<glyph name="multiply" format="2">
  <advance width="600.0"/>
  <unicode hex="00D7"/>
  <outline>
    <contour>
      <point x="237.0" y="525.3333333333333" type="curve" smooth="yes"/>
      <point x="218.33333333333331" y="525.3333333333333"/>
      <point x="197.33333333333331" y="515.3333333333333"/>
      <point x="166.33333333333331" y="491.6666666666666" type="curve" smooth="yes"/>
      <point x="134.00000000000003" y="467.6666666666667"/>
      <point x="107.33333333333336" y="439.3333333333334"/>
      <point x="93.0" y="415.0" type="curve"/>
      <point x="150.12812445716668" y="318.3479400786667"/>
      <point x="219.77496335390003" y="230.28558278846668"/>
      <point x="311.3333333333334" y="130.33333333333334" type="curve" smooth="yes"/>
      <point x="338.00000000000006" y="100.66666666666666"/>
      <point x="351.0" y="95.33333333333333"/>
      <point x="372.33333333333337" y="95.33333333333333" type="curve" smooth="yes"/>
      <point x="402.6666666666667" y="95.33333333333333"/>
      <point x="435.66666666666663" y="116.99999999999999"/>
      <point x="504.33333333333337" y="172.33333333333331" type="curve" smooth="yes"/>
      <point x="510.3333333333332" y="177.33333333333331"/>
      <point x="515.3333333333333" y="181.33333333333334"/>
      <point x="520.3333333333335" y="185.33333333333334" type="curve"/>
      <point x="421.66666666666663" y="284.3333333333333"/>
      <point x="338.3333333333333" y="392.3333333333333"/>
      <point x="284.99999999999994" y="489.9999999999999" type="curve" smooth="yes"/>
      <point x="271.6666666666667" y="514.9999999999999"/>
      <point x="256.99999999999994" y="525.3333333333333"/>
    </contour>
    <contour>
      <point x="30.333333333333336" y="185.33333333333331" type="curve"/>
      <point x="33.33333333333332" y="181.33333333333331"/>
      <point x="36.333333333333364" y="177.33333333333331"/>
      <point x="40.33333333333336" y="172.33333333333331" type="curve" smooth="yes"/>
      <point x="79.6666666666667" y="120.33333333333333"/>
      <point x="108.33333333333337" y="95.33333333333333"/>
      <point x="144.33333333333334" y="95.33333333333333" type="curve" smooth="yes"/>
      <point x="167.66666666666663" y="95.33333333333333"/>
      <point x="187.66666666666666" y="103.66666666666666"/>
      <point x="228.66666666666669" y="133.66666666666666" type="curve" smooth="yes"/>
      <point x="365.15819698300004" y="233.82086789219994"/>
      <point x="475.6666666666667" y="328.99999999999994"/>
      <point x="565.3333333333333" y="415.0" type="curve"/>
      <point x="562.9999999999999" y="438.0"/>
      <point x="549.0000000000001" y="467.33333333333326"/>
      <point x="530.0000000000001" y="490.33333333333326" type="curve" smooth="yes"/>
      <point x="511.3333333333333" y="513.3333333333334"/>
      <point x="489.66666666666674" y="525.3333333333333"/>
      <point x="465.66666666666674" y="525.3333333333333" type="curve" smooth="yes"/>
      <point x="443.6666666666667" y="525.3333333333333"/>
      <point x="429.3333333333334" y="517.6666666666665"/>
      <point x="402.6666666666667" y="491.3333333333332" type="curve" smooth="yes"/>
      <point x="284.9629550297332" y="374.94694769846666"/>
      <point x="161.29439478706666" y="271.0061985908"/>
    </contour>
  </outline>
</glyph>
<glyph name="kgreenlandic" format="2">
  <advance width="600.0"/>
  <unicode hex="0138"/>
  <outline>
    <contour>
      <point x="182.0" y="-4.440892098500626e-16" type="curve"/>
      <point x="289.99999999999994" y="428.66666666666674" type="line" smooth="yes"/>
      <point x="304.3333333333333" y="485.0000000000001"/>
      <point x="302.9999999999999" y="512.6666666666666"/>
      <point x="289.99999999999994" y="530.0" type="curve" smooth="yes"/>
      <point x="274.99999999999994" y="550.0"/>
      <point x="238.99999999999997" y="557.0"/>
      <point x="184.33333333333334" y="557.0" type="curve" smooth="yes"/>
      <point x="157.00000000000006" y="557.0"/>
      <point x="130.33333333333337" y="554.6666666666666"/>
      <point x="103.33333333333333" y="548.9999999999999" type="curve"/>
      <point x="102.66666666666666" y="511.66666666666663"/>
      <point x="97.66666666666666" y="471.0"/>
      <point x="82.0" y="408.3333333333333" type="curve" smooth="yes"/>
      <point x="6.0000000000000036" y="103.66666666666666" type="line" smooth="yes"/>
      <point x="-14.999999999999991" y="19.666666666666668"/>
      <point x="10.000000000000005" y="-6.666666666666666"/>
      <point x="104.33333333333333" y="-6.666666666666666" type="curve" smooth="yes"/>
      <point x="132.00000000000003" y="-6.666666666666666"/>
      <point x="157.99999999999997" y="-4.666666666666666"/>
    </contour>
    <contour>
      <point x="442.99999999999994" y="560.0" type="line"/>
      <point x="357.66666666666663" y="408.66666666666674"/>
      <point x="241.0" y="330.0"/>
      <point x="108.33333333333336" y="281.3333333333333" type="curve"/>
      <point x="161.99999999999991" y="171.33333333333331" type="line"/>
      <point x="302.6666666666667" y="193.33333333333331"/>
      <point x="479.00000000000006" y="284.66666666666674"/>
      <point x="590.6666666666667" y="433.66666666666674" type="curve" smooth="yes"/>
      <point x="616.6666666666667" y="467.66666666666663"/>
      <point x="620.6666666666667" y="479.66666666666663"/>
      <point x="623.6666666666666" y="493.66666666666663" type="curve" smooth="yes"/>
      <point x="633.6666666666667" y="534.0"/>
      <point x="559.3333333333333" y="560.0"/>
      <point x="467.0" y="560.0" type="curve"/>
    </contour>
    <contour>
      <point x="399.3333333333334" y="-10.0" type="curve" smooth="yes"/>
      <point x="451.6666666666668" y="-10.0"/>
      <point x="488.3333333333334" y="-1.6666666666666679"/>
      <point x="523.3333333333334" y="18.0" type="curve"/>
      <point x="470.9999999999999" y="120.0"/>
      <point x="440.66666666666663" y="220.0"/>
      <point x="427.0" y="355.0" type="curve"/>
      <point x="267.3333333333333" y="218.66666666666669" type="line"/>
      <point x="267.0" y="142.66666666666669"/>
      <point x="291.6666666666667" y="56.333333333333336"/>
      <point x="312.3333333333333" y="29.333333333333336" type="curve" smooth="yes"/>
      <point x="333.33333333333326" y="1.0"/>
      <point x="358.0000000000001" y="-10.0"/>
    </contour>
  </outline>
</glyph>
<glyph name="LJ" format="2">
  <advance width="600.0"/>
  <unicode hex="01C7"/>
  <outline>
    <contour>
      <point x="56.333333333333336" y="0.0" type="curve" smooth="yes"/>
      <point x="278.33333333333337" y="0.0" type="line"/>
      <point x="312.3333333333333" y="86.0"/>
      <point x="320.33333333333337" y="196.66666666666666"/>
      <point x="255.3333333333334" y="196.66666666666666" type="curve" smooth="yes"/>
      <point x="162.66666666666663" y="196.66666666666666" type="line"/>
      <point x="175.99999999999997" y="316.3333333333333"/>
      <point x="259.6666666666666" y="472.3333333333334"/>
      <point x="276.00000000000006" y="602.6666666666667" type="curve"/>
      <point x="286.00000000000006" y="682.6666666666666"/>
      <point x="252.33333333333334" y="710.0"/>
      <point x="189.99999999999994" y="710.0" type="curve" smooth="yes"/>
      <point x="157.33333333333326" y="710.0"/>
      <point x="130.0" y="706.6666666666667"/>
      <point x="102.33333333333337" y="700.0" type="curve"/>
      <point x="105.66666666666667" y="661.0000000000001"/>
      <point x="106.33333333333336" y="622.3333333333333"/>
      <point x="99.00000000000001" y="571.3333333333331" type="curve" smooth="yes"/>
      <point x="81.33333333333334" y="449.3333333333333"/>
      <point x="3.3333333333333375" y="292.0"/>
      <point x="-17.33333333333333" y="156.33333333333331" type="curve" smooth="yes"/>
      <point x="-31.33333333333333" y="63.99999999999999"/>
      <point x="-2.3333333333333357" y="0.0"/>
    </contour>
    <contour>
      <point x="239.00000000000006" y="274.3333333333333" type="curve"/>
      <point x="214.33333333333334" y="181.33333333333331"/>
      <point x="201.99999999999994" y="106.66666666666666"/>
      <point x="198.0" y="51.000000000000014" type="curve" smooth="yes"/>
      <point x="194.33333333333337" y="-0.6666666666666679"/>
      <point x="216.66666666666674" y="-26.333333333333343"/>
      <point x="286.33333333333337" y="-26.33333333333333" type="curve"/>
      <point x="330.6666666666666" y="40.0"/>
      <point x="363.33333333333326" y="110.66666666666666"/>
      <point x="374.66666666666663" y="207.0" type="curve" smooth="yes"/>
      <point x="381.66666666666663" y="267.99999999999994"/>
      <point x="360.00000000000006" y="284.3333333333333"/>
      <point x="325.0" y="284.3333333333333" type="curve" smooth="yes"/>
      <point x="292.33333333333337" y="284.3333333333333"/>
      <point x="261.6666666666667" y="280.99999999999994"/>
    </contour>
    <contour>
      <point x="216.66666666666669" y="-75.33333333333334" type="curve"/>
      <point x="228.33333333333334" y="-115.33333333333334"/>
      <point x="259.0" y="-135.66666666666669"/>
      <point x="319.3333333333332" y="-135.66666666666669" type="curve" smooth="yes"/>
      <point x="363.3333333333333" y="-135.66666666666669"/>
      <point x="406.99999999999994" y="-130.99999999999997"/>
      <point x="449.33333333333337" y="-99.66666666666666" type="curve" smooth="yes"/>
      <point x="498.6666666666668" y="-63.0"/>
      <point x="539.3333333333334" y="-4.66666666666665"/>
      <point x="561.3333333333334" y="133.33333333333337" type="curve" smooth="yes"/>
      <point x="586.6666666666667" y="294.66666666666663"/>
      <point x="635.3333333333334" y="466.0"/>
      <point x="674.6666666666666" y="596.6666666666666" type="curve"/>
      <point x="696.6666666666667" y="669.6666666666666"/>
      <point x="649.9999999999999" y="710.0"/>
      <point x="556.3333333333334" y="710.0" type="curve" smooth="yes"/>
      <point x="504.0" y="710.0"/>
      <point x="461.6666666666667" y="705.6666666666666"/>
      <point x="415.3333333333333" y="700.0" type="curve"/>
      <point x="406.0" y="680.0000000000001"/>
      <point x="395.6666666666667" y="653.0000000000001"/>
      <point x="389.0" y="624.6666666666666" type="curve" smooth="yes"/>
      <point x="368.0" y="541.9999999999999"/>
      <point x="381.6666666666667" y="506.6666666666667"/>
      <point x="413.0" y="506.6666666666667" type="curve" smooth="yes"/>
      <point x="442.3333333333333" y="506.6666666666667"/>
      <point x="467.33333333333326" y="518.6666666666666"/>
      <point x="510.0" y="553.3333333333333" type="curve"/>
      <point x="482.3333333333333" y="551.3333333333334" type="line"/>
      <point x="517.3333333333334" y="524.3333333333334" type="line"/>
      <point x="508.0000000000001" y="567.6666666666666" type="line"/>
      <point x="467.66666666666663" y="430.3333333333333"/>
      <point x="433.0" y="288.0"/>
      <point x="410.33333333333326" y="149.66666666666666" type="curve" smooth="yes"/>
      <point x="383.66666666666663" y="-10.33333333333335"/>
      <point x="334.0" y="-56.99999999999998"/>
    </contour>
  </outline>
</glyph>
<glyph name="NJ" format="2">
  <advance width="600.0"/>
  <unicode hex="01CA"/>
  <outline>
    <contour>
      <point x="100.66666666666664" y="-6.661338147750939e-16" type="curve"/>
      <point x="102.33333333333336" y="20.999999999999993"/>
      <point x="104.66666666666666" y="44.0"/>
      <point x="108.00000000000001" y="66.33333333333337" type="curve"/>
      <point x="124.99999999999999" y="159.66666666666666"/>
      <point x="137.3333333333333" y="260.33333333333326"/>
      <point x="147.99999999999997" y="409.33333333333337" type="curve"/>
      <point x="130.66666666666669" y="394.00000000000006" type="line"/>
      <point x="168.33333333333337" y="394.00000000000006" type="line"/>
      <point x="151.66666666666669" y="408.33333333333326" type="line"/>
      <point x="147.33333333333334" y="216.66666666666669"/>
      <point x="157.99999999999994" y="90.66666666666666"/>
      <point x="182.33333333333331" y="34.66666666666667" type="curve" smooth="yes"/>
      <point x="195.0" y="5.333333333333335"/>
      <point x="218.33333333333331" y="-7.333333333333334"/>
      <point x="267.6666666666666" y="-7.333333333333334" type="curve" smooth="yes"/>
      <point x="282.3333333333333" y="-7.333333333333334"/>
      <point x="311.6666666666667" y="-4.666666666666668"/>
      <point x="327.6666666666667" y="0.0" type="curve"/>
      <point x="326.00000000000006" y="28.000000000000004"/>
      <point x="327.0" y="59.666666666666664"/>
      <point x="333.00000000000006" y="103.33333333333336" type="curve"/>
      <point x="354.33333333333337" y="258.66666666666674"/>
      <point x="425.0" y="430.6666666666667"/>
      <point x="453.99999999999994" y="623.3333333333334" type="curve"/>
      <point x="462.33333333333326" y="680.0000000000002"/>
      <point x="440.66666666666663" y="709.3333333333334"/>
      <point x="389.33333333333326" y="709.3333333333334" type="curve"/>
      <point x="359.6666666666667" y="709.3333333333334"/>
      <point x="332.33333333333337" y="705.6666666666666"/>
      <point x="312.33333333333337" y="700.0" type="curve"/>
      <point x="311.33333333333337" y="673.0"/>
      <point x="304.00000000000006" y="632.3333333333334"/>
      <point x="297.33333333333337" y="592.6666666666669" type="curve"/>
      <point x="275.6666666666667" y="487.33333333333337"/>
      <point x="258.66666666666663" y="386.0"/>
      <point x="253.00000000000006" y="261.33333333333337" type="curve"/>
      <point x="272.33333333333326" y="274.33333333333337" type="line"/>
      <point x="234.99999999999994" y="274.33333333333337" type="line"/>
      <point x="251.99999999999997" y="255.66666666666669" type="line"/>
      <point x="237.3333333333333" y="361.0"/>
      <point x="246.0000000000001" y="462.66666666666663"/>
      <point x="259.66666666666674" y="614.3333333333334" type="curve" smooth="yes"/>
      <point x="266.3333333333333" y="685.6666666666665"/>
      <point x="243.6666666666666" y="709.3333333333334"/>
      <point x="183.33333333333337" y="709.3333333333334" type="curve" smooth="yes"/>
      <point x="150.0" y="709.3333333333334"/>
      <point x="122.3333333333333" y="706.6666666666667"/>
      <point x="91.00000000000001" y="700.0" type="curve"/>
      <point x="91.00000000000001" y="663.3333333333334"/>
      <point x="86.99999999999997" y="621.3333333333333"/>
      <point x="76.99999999999997" y="570.0000000000001" type="curve"/>
      <point x="47.333333333333336" y="414.0"/>
      <point x="-12.33333333333333" y="279.0"/>
      <point x="-32.99999999999999" y="108.0" type="curve"/>
      <point x="-43.66666666666665" y="20.33333333333333"/>
      <point x="-15.333333333333336" y="-6.333333333333334"/>
      <point x="35.333333333333336" y="-6.333333333333334" type="curve"/>
      <point x="55.99999999999998" y="-6.333333333333334"/>
      <point x="85.0" y="-3.9999999999999996"/>
    </contour>
    <contour>
      <point x="216.66666666666663" y="-68.66666666666667" type="curve"/>
      <point x="228.33333333333334" y="-110.66666666666667"/>
      <point x="257.6666666666667" y="-135.66666666666669"/>
      <point x="319.33333333333337" y="-135.66666666666669" type="curve" smooth="yes"/>
      <point x="363.33333333333337" y="-135.66666666666669"/>
      <point x="407.6666666666666" y="-130.33333333333334"/>
      <point x="451.99999999999994" y="-101.66666666666666" type="curve" smooth="yes"/>
      <point x="502.6666666666666" y="-68.33333333333331"/>
      <point x="541.3333333333333" y="-5.333333333333318"/>
      <point x="561.3333333333334" y="133.3333333333334" type="curve" smooth="yes"/>
      <point x="582.0" y="277.3333333333333"/>
      <point x="627.3333333333334" y="467.3333333333333"/>
      <point x="674.6666666666666" y="596.6666666666666" type="curve" smooth="yes"/>
      <point x="695.3333333333335" y="653.0"/>
      <point x="650.0000000000002" y="710.0"/>
      <point x="575.0000000000002" y="710.0" type="curve" smooth="yes"/>
      <point x="522.6666666666666" y="710.0"/>
      <point x="490.33333333333337" y="705.6666666666666"/>
      <point x="452.6666666666667" y="700.0" type="curve"/>
      <point x="444.0" y="679.3333333333335"/>
      <point x="429.6666666666668" y="653.0000000000001"/>
      <point x="417.00000000000006" y="601.3333333333333" type="curve" smooth="yes"/>
      <point x="400.6666666666667" y="536.6666666666665"/>
      <point x="410.33333333333337" y="518.6666666666666"/>
      <point x="434.33333333333326" y="518.6666666666666" type="curve" smooth="yes"/>
      <point x="456.6666666666665" y="518.6666666666666"/>
      <point x="482.0000000000001" y="528.3333333333334"/>
      <point x="509.99999999999994" y="553.3333333333333" type="curve"/>
      <point x="482.33333333333337" y="551.3333333333334" type="line"/>
      <point x="517.3333333333334" y="524.3333333333334" type="line"/>
      <point x="508.0" y="567.6666666666666" type="line"/>
      <point x="458.3333333333334" y="417.66666666666663"/>
      <point x="422.3333333333333" y="266.66666666666674"/>
      <point x="403.66666666666663" y="134.99999999999997" type="curve" smooth="yes"/>
      <point x="383.0" y="-11.000000000000018"/>
      <point x="329.33333333333337" y="-51.66666666666666"/>
    </contour>
  </outline>
</glyph>
<glyph name="nj" format="2">
  <advance width="600.0"/>
  <unicode hex="01CC"/>
  <outline>
    <contour>
      <point x="551.6666666666667" y="556.6666666666666" type="curve" smooth="yes"/>
      <point x="519.0" y="556.6666666666666"/>
      <point x="485.99999999999994" y="552.6666666666666"/>
      <point x="447.33333333333326" y="546.6666666666666" type="curve"/>
      <point x="435.99999999999994" y="524.3333333333333"/>
      <point x="423.6666666666666" y="495.00000000000006"/>
      <point x="414.33333333333326" y="457.3333333333333" type="curve" smooth="yes"/>
      <point x="396.99999999999994" y="386.3333333333334"/>
      <point x="407.00000000000006" y="361.66666666666663"/>
      <point x="426.0" y="361.66666666666663" type="curve" smooth="yes"/>
      <point x="438.6666666666666" y="361.66666666666663"/>
      <point x="449.99999999999994" y="368.6666666666667"/>
      <point x="468.00000000000006" y="385.3333333333333" type="curve"/>
      <point x="472.99999999999994" y="380.66666666666674" type="line"/>
      <point x="435.9999999999999" y="280.33333333333326"/>
      <point x="403.66666666666663" y="170.66666666666666"/>
      <point x="388.3333333333333" y="57.999999999999986" type="curve" smooth="yes"/>
      <point x="382.6666666666667" y="14.0"/>
      <point x="373.0" y="-24.333333333333357"/>
      <point x="364.3333333333334" y="-50.33333333333333" type="curve"/>
      <point x="350.6666666666667" y="-52.666666666666686"/>
      <point x="337.0" y="-53.33333333333334"/>
      <point x="318.66666666666663" y="-53.33333333333334" type="curve" smooth="yes"/>
      <point x="274.33333333333326" y="-53.33333333333334"/>
      <point x="250.66666666666663" y="-50.333333333333336"/>
      <point x="222.33333333333334" y="-42.33333333333336" type="curve"/>
      <point x="216.33333333333334" y="-42.33333333333336" type="line"/>
      <point x="205.00000000000003" y="-66.99999999999999"/>
      <point x="197.66666666666666" y="-86.33333333333334"/>
      <point x="190.66666666666666" y="-114.66666666666671" type="curve" smooth="yes"/>
      <point x="180.0" y="-155.99999999999994"/>
      <point x="184.66666666666669" y="-184.99999999999994"/>
      <point x="199.66666666666666" y="-203.3333333333332" type="curve" smooth="yes"/>
      <point x="214.33333333333326" y="-222.33333333333331"/>
      <point x="241.3333333333333" y="-233.33333333333334"/>
      <point x="288.99999999999994" y="-233.33333333333337" type="curve" smooth="yes"/>
      <point x="405.33333333333337" y="-233.33333333333334"/>
      <point x="513.6666666666666" y="-118.3333333333334"/>
      <point x="535.6666666666667" y="26.66666666666668" type="curve" smooth="yes"/>
      <point x="563.0" y="204.6666666666667"/>
      <point x="591.9999999999999" y="319.0"/>
      <point x="648.0000000000001" y="475.0" type="curve" smooth="yes"/>
      <point x="663.3333333333334" y="517.6666666666667"/>
      <point x="628.3333333333335" y="556.6666666666666"/>
    </contour>
    <contour>
      <point x="489.66666666666674" y="781.0" type="curve"/>
      <point x="478.6666666666667" y="739.0" type="line" smooth="yes"/>
      <point x="457.66666666666663" y="659.9999999999999"/>
      <point x="511.00000000000006" y="623.0"/>
      <point x="591.6666666666665" y="623.0" type="curve" smooth="yes"/>
      <point x="625.6666666666666" y="623.0"/>
      <point x="667.6666666666667" y="629.0"/>
      <point x="704.3333333333335" y="640.6666666666666" type="curve"/>
      <point x="715.0000000000001" y="683.3333333333334" type="line" smooth="yes"/>
      <point x="733.3333333333335" y="755.6666666666666"/>
      <point x="683.3333333333334" y="793.3333333333333"/>
      <point x="605.0" y="793.3333333333333" type="curve" smooth="yes"/>
      <point x="570.0" y="793.3333333333333"/>
      <point x="525.3333333333333" y="788.3333333333333"/>
    </contour>
    <contour>
      <point x="314.0" y="0.0" type="curve"/>
      <point x="311.9999999999999" y="38.66666666666667"/>
      <point x="316.33333333333326" y="80.66666666666669"/>
      <point x="326.3333333333333" y="134.0" type="curve" smooth="yes"/>
      <point x="340.66666666666663" y="211.33333333333331"/>
      <point x="375.3333333333333" y="291.66666666666663"/>
      <point x="385.66666666666663" y="365.3333333333333" type="curve" smooth="yes"/>
      <point x="399.99999999999994" y="467.33333333333337"/>
      <point x="380.66666666666663" y="560.0"/>
      <point x="340.0" y="560.0" type="curve"/>
      <point x="298.33333333333326" y="560.0"/>
      <point x="252.33333333333337" y="517.3333333333331"/>
      <point x="203.66666666666666" y="425.0" type="curve"/>
      <point x="182.66666666666666" y="425.0" type="line"/>
      <point x="131.6666666666667" y="228.6666666666666" type="line"/>
      <point x="176.66666666666669" y="342.33333333333337"/>
      <point x="207.33333333333331" y="364.33333333333337"/>
      <point x="237.66666666666669" y="364.33333333333337" type="curve" smooth="yes"/>
      <point x="243.33333333333343" y="364.33333333333337"/>
      <point x="247.33333333333334" y="363.66666666666663"/>
      <point x="250.66666666666663" y="362.99999999999994" type="curve" smooth="yes"/>
      <point x="207.0" y="264.00000000000006"/>
      <point x="175.33333333333337" y="184.33333333333337"/>
      <point x="164.99999999999997" y="121.66666666666666" type="curve" smooth="yes"/>
      <point x="148.66666666666666" y="22.333333333333332"/>
      <point x="177.33333333333334" y="-8.666666666666666"/>
      <point x="241.33333333333334" y="-8.666666666666666" type="curve" smooth="yes"/>
      <point x="265.00000000000006" y="-8.666666666666666"/>
      <point x="291.3333333333333" y="-5.999999999999998"/>
    </contour>
    <contour>
      <point x="92.99999999999997" y="0.0" type="curve"/>
      <point x="102.99999999999999" y="133.33333333333334"/>
      <point x="178.66666666666666" y="275.6666666666667"/>
      <point x="196.99999999999994" y="427.6666666666667" type="curve" smooth="yes"/>
      <point x="207.99999999999994" y="516.0000000000001"/>
      <point x="183.3333333333333" y="555.3333333333333"/>
      <point x="121.33333333333333" y="555.3333333333333" type="curve"/>
      <point x="95.99999999999999" y="555.3333333333333"/>
      <point x="77.33333333333331" y="552.3333333333334"/>
      <point x="57.6666666666667" y="546.6666666666666" type="curve"/>
      <point x="59.666666666666714" y="511.6666666666667"/>
      <point x="57.66666666666669" y="476.6666666666667"/>
      <point x="50.66666666666669" y="425.33333333333326" type="curve" smooth="yes"/>
      <point x="35.333333333333336" y="310.6666666666666"/>
      <point x="-22.66666666666665" y="209.66666666666663"/>
      <point x="-39.333333333333314" y="101.66666666666669" type="curve" smooth="yes"/>
      <point x="-51.3333333333333" y="22.33333333333333"/>
      <point x="-16.999999999999993" y="-5.666666666666666"/>
      <point x="34.000000000000014" y="-5.666666666666666" type="curve" smooth="yes"/>
      <point x="52.33333333333332" y="-5.666666666666666"/>
      <point x="75.66666666666667" y="-4.333333333333334"/>
    </contour>
  </outline>
</glyph>
<glyph name="dotlessj" format="2">
  <advance width="600.0"/>
  <unicode hex="0237"/>
  <outline>
    <contour>
      <point x="144.66666666666666" y="510.0000000000001" type="curve"/>
      <point x="128.00000000000003" y="483.66666666666674"/>
      <point x="116.3333333333333" y="457.33333333333326"/>
      <point x="107.33333333333333" y="423.3333333333333" type="curve"/>
      <point x="88.66666666666666" y="348.33333333333337"/>
      <point x="103.33333333333334" y="306.0"/>
      <point x="143.99999999999997" y="306.0" type="curve" smooth="yes"/>
      <point x="183.00000000000003" y="306.0"/>
      <point x="260.0" y="338.0"/>
      <point x="361.9999999999999" y="391.6666666666667" type="curve"/>
      <point x="368.3333333333333" y="389.99999999999994" type="line"/>
      <point x="355.0" y="284.00000000000006"/>
      <point x="335.99999999999994" y="197.0"/>
      <point x="297.6666666666666" y="109.99999999999996" type="curve"/>
      <point x="257.3333333333333" y="18.3333333333333"/>
      <point x="227.33333333333331" y="-8.33333333333335"/>
      <point x="194.0" y="-8.333333333333353" type="curve"/>
      <point x="184.33333333333337" y="-8.333333333333353"/>
      <point x="174.99999999999994" y="-6.333333333333357"/>
      <point x="165.33333333333334" y="-2.000000000000025" type="curve"/>
      <point x="164.33333333333334" y="30.999999999999993"/>
      <point x="182.66666666666669" y="104.66666666666667"/>
      <point x="247.66666666666669" y="166.66666666666666" type="curve"/>
      <point x="248.33333333333337" y="172.66666666666663" type="line"/>
      <point x="242.0" y="174.66666666666663"/>
      <point x="234.6666666666666" y="175.66666666666663"/>
      <point x="225.0" y="175.66666666666663" type="curve" smooth="yes"/>
      <point x="162.66666666666663" y="175.66666666666663"/>
      <point x="100.33333333333331" y="161.3333333333333"/>
      <point x="59.33333333333331" y="124.3333333333333" type="curve" smooth="yes"/>
      <point x="25.333333333333318" y="92.33333333333334"/>
      <point x="2.3333333333333552" y="55.333333333333336"/>
      <point x="-11.999999999999975" y="5.666666666666675" type="curve"/>
      <point x="-28.99999999999998" y="-57.00000000000001"/>
      <point x="-11.33333333333331" y="-103.99999999999999"/>
      <point x="21.99999999999999" y="-137.99999999999997" type="curve" smooth="yes"/>
      <point x="59.00000000000001" y="-176.33333333333334"/>
      <point x="115.00000000000001" y="-200.0"/>
      <point x="176.66666666666669" y="-200.0" type="curve"/>
      <point x="282.66666666666674" y="-200.0"/>
      <point x="378.9999999999999" y="-152.33333333333331"/>
      <point x="456.3333333333333" y="15.666666666666664" type="curve"/>
      <point x="508.33333333333326" y="128.6666666666667"/>
      <point x="544.9999999999999" y="262.6666666666667"/>
      <point x="563.3333333333331" y="411.99999999999994" type="curve" smooth="yes"/>
      <point x="570.9999999999998" y="475.9999999999999"/>
      <point x="533.0" y="556.6666666666666"/>
      <point x="415.33333333333326" y="556.6666666666666" type="curve" smooth="yes"/>
      <point x="325.0" y="556.6666666666666"/>
      <point x="212.33333333333323" y="535.3333333333333"/>
    </contour>
  </outline>
</glyph>
<glyph name="ringhalfrightmod" format="2">
  <advance width="600.0"/>
  <unicode hex="02BE"/>
  <outline>
    <contour>
      <point x="311.33333333333337" y="592.0" type="curve" smooth="yes"/>
      <point x="400.0" y="592.0"/>
      <point x="463.3333333333333" y="622.6666666666667"/>
      <point x="487.0" y="717.6666666666667" type="curve" smooth="yes"/>
      <point x="489.0000000000001" y="725.9999999999999" type="line" smooth="yes"/>
      <point x="507.6666666666667" y="804.0000000000001"/>
      <point x="460.0" y="868.0"/>
      <point x="367.3333333333333" y="868.0" type="curve"/>
      <point x="351.33333333333326" y="847.0000000000001"/>
      <point x="342.3333333333333" y="826.6666666666667"/>
      <point x="338.66666666666663" y="810.0" type="curve" smooth="yes"/>
      <point x="335.0" y="795.0000000000001"/>
      <point x="338.66666666666663" y="790.9999999999999"/>
      <point x="347.66666666666663" y="790.9999999999999" type="curve" smooth="yes"/>
      <point x="359.0" y="790.9999999999999"/>
      <point x="368.66666666666663" y="789.9999999999999"/>
      <point x="376.3333333333334" y="787.0" type="curve"/>
      <point x="382.0" y="776.0"/>
      <point x="382.66666666666674" y="759.3333333333333"/>
      <point x="379.0" y="743.6666666666666" type="curve" smooth="yes"/>
      <point x="377.00000000000006" y="736.3333333333334" type="line" smooth="yes"/>
      <point x="370.66666666666663" y="713.0000000000001"/>
      <point x="350.3333333333333" y="699.6666666666667"/>
      <point x="319.33333333333326" y="698.6666666666667" type="curve"/>
      <point x="301.66666666666663" y="670.3333333333333"/>
      <point x="290.33333333333337" y="644.3333333333333"/>
      <point x="286.3333333333334" y="618.3333333333333" type="curve" smooth="yes"/>
      <point x="283.00000000000006" y="599.0"/>
      <point x="288.33333333333337" y="592.0"/>
    </contour>
  </outline>
</glyph>
<glyph name="brevecomb" format="2">
  <unicode hex="0306"/>
  <anchor x="68.33333333333333" y="549.0" name="_top"/>
  <anchor x="124.99999999999999" y="772.6666666666666" name="top"/>
  <anchor x="144.0" y="848.6666666666666" name="hook"/>
  <outline>
    <contour>
      <point x="109.66666666666667" y="743.6666666666666" type="curve"/>
      <point x="65.0" y="747.0"/>
      <point x="44.0" y="769.3333333333335"/>
      <point x="40.33333333333333" y="811.3333333333334" type="curve"/>
      <point x="1.6666666666666732" y="809.6666666666666"/>
      <point x="-23.99999999999998" y="803.6666666666666"/>
      <point x="-48.666666666666686" y="790.0" type="curve" smooth="yes"/>
      <point x="-61.33333333333335" y="782.3333333333334"/>
      <point x="-67.33333333333337" y="770.3333333333333"/>
      <point x="-67.66666666666669" y="754.6666666666666" type="curve" smooth="yes"/>
      <point x="-68.0" y="674.6666666666667"/>
      <point x="-11.333333333333332" y="618.0"/>
      <point x="91.66666666666667" y="618.0" type="curve" smooth="yes"/>
      <point x="98.33333333333334" y="618.0" type="line" smooth="yes"/>
      <point x="194.00000000000003" y="618.0"/>
      <point x="268.3333333333334" y="657.0"/>
      <point x="307.66666666666674" y="753.3333333333333" type="curve" smooth="yes"/>
      <point x="315.00000000000006" y="770.3333333333333"/>
      <point x="315.3333333333333" y="784.6666666666667"/>
      <point x="303.33333333333337" y="792.6666666666666" type="curve" smooth="yes"/>
      <point x="284.66666666666663" y="804.9999999999999"/>
      <point x="259.0" y="811.3333333333333"/>
      <point x="207.66666666666666" y="811.3333333333334" type="curve"/>
      <point x="184.33333333333331" y="765.0000000000001"/>
      <point x="156.00000000000003" y="746.0"/>
    </contour>
  </outline>
</glyph>
<glyph name="dieresiscomb" format="2">
  <unicode hex="0308"/>
  <anchor x="69.0" y="549.0" name="_top"/>
  <anchor x="116.99999999999999" y="744.0" name="top"/>
  <outline>
    <contour>
      <point x="-75.66666666666664" y="763.3333333333334" type="curve"/>
      <point x="-86.99999999999999" y="718.6666666666667" type="line" smooth="yes"/>
      <point x="-107.66666666666664" y="638.3333333333333"/>
      <point x="-86.33333333333331" y="609.0"/>
      <point x="-22.66666666666665" y="609.0" type="curve" smooth="yes"/>
      <point x="9.999999999999998" y="609.0"/>
      <point x="31.000000000000004" y="610.6666666666666"/>
      <point x="57.66666666666667" y="616.6666666666667" type="curve"/>
      <point x="68.0" y="656.6666666666666" type="line" smooth="yes"/>
      <point x="88.66666666666667" y="736.6666666666666"/>
      <point x="62.99999999999999" y="770.0"/>
      <point x="3.6666666666666705" y="770.0" type="curve" smooth="yes"/>
      <point x="-21.33333333333333" y="770.0"/>
      <point x="-48.66666666666664" y="767.6666666666667"/>
    </contour>
    <contour>
      <point x="150.0" y="763.3333333333334" type="curve"/>
      <point x="138.66666666666669" y="718.6666666666667" type="line" smooth="yes"/>
      <point x="118.0" y="638.3333333333333"/>
      <point x="139.33333333333334" y="609.0"/>
      <point x="203.0" y="609.0" type="curve" smooth="yes"/>
      <point x="235.66666666666666" y="609.0"/>
      <point x="256.66666666666663" y="610.6666666666666"/>
      <point x="283.3333333333333" y="616.6666666666667" type="curve"/>
      <point x="293.66666666666663" y="656.6666666666666" type="line" smooth="yes"/>
      <point x="314.33333333333337" y="736.6666666666666"/>
      <point x="288.6666666666667" y="770.0"/>
      <point x="229.33333333333331" y="770.0" type="curve" smooth="yes"/>
      <point x="204.33333333333331" y="770.0"/>
      <point x="176.99999999999997" y="767.6666666666667"/>
    </contour>
  </outline>
</glyph>
<glyph name="second" format="2">
  <advance width="600.0"/>
  <unicode hex="2033"/>
  <outline>
    <contour>
      <point x="143.00000000000006" y="432.6666666666667" type="curve" smooth="yes"/>
      <point x="188.33333333333337" y="432.6666666666667"/>
      <point x="221.00000000000003" y="441.00000000000006"/>
      <point x="252.3333333333334" y="462.0" type="curve" smooth="yes"/>
      <point x="340.33333333333337" y="518.9999999999999"/>
      <point x="398.0" y="618.6666666666666"/>
      <point x="414.00000000000006" y="693.6666666666666" type="curve" smooth="yes"/>
      <point x="423.9999999999999" y="739.6666666666666"/>
      <point x="403.00000000000006" y="759.3333333333334"/>
      <point x="351.66666666666674" y="759.3333333333334" type="curve" smooth="yes"/>
      <point x="303.66666666666674" y="759.3333333333334"/>
      <point x="271.66666666666663" y="756.0"/>
      <point x="236.66666666666663" y="749.0" type="curve"/>
      <point x="198.6666666666667" y="636.0"/>
      <point x="141.99999999999997" y="533.0"/>
      <point x="59.333333333333336" y="451.0" type="curve"/>
      <point x="80.66666666666666" y="437.0"/>
      <point x="101.33333333333334" y="432.6666666666667"/>
    </contour>
    <contour>
      <point x="381.6666666666666" y="432.6666666666667" type="curve" smooth="yes"/>
      <point x="426.99999999999994" y="432.6666666666667"/>
      <point x="459.66666666666663" y="441.00000000000006"/>
      <point x="491.6666666666665" y="462.0" type="curve" smooth="yes"/>
      <point x="579.6666666666666" y="518.9999999999999"/>
      <point x="636.6666666666667" y="618.6666666666666"/>
      <point x="652.6666666666666" y="693.6666666666666" type="curve" smooth="yes"/>
      <point x="662.666666666667" y="739.6666666666666"/>
      <point x="641.6666666666666" y="759.3333333333334"/>
      <point x="591.0" y="759.3333333333334" type="curve" smooth="yes"/>
      <point x="543.0" y="759.3333333333334"/>
      <point x="510.33333333333337" y="756.0"/>
      <point x="475.33333333333337" y="749.0" type="curve"/>
      <point x="440.0" y="635.0"/>
      <point x="383.3333333333334" y="532.0"/>
      <point x="298.0" y="451.0" type="curve"/>
      <point x="319.3333333333333" y="437.0"/>
      <point x="339.9999999999999" y="432.6666666666667"/>
    </contour>
  </outline>
</glyph>
<glyph name="cedi" format="2">
  <advance width="600.0"/>
  <unicode hex="20B5"/>
  <outline>
    <contour>
      <point x="470.99999999999994" y="557.3333333333334" type="curve" smooth="yes"/>
      <point x="532.3333333333333" y="557.3333333333334"/>
      <point x="567.6666666666669" y="543.9999999999999"/>
      <point x="593.0" y="522.6666666666666" type="curve"/>
      <point x="599.0" y="522.6666666666666" type="line"/>
      <point x="619.6666666666666" y="541.0"/>
      <point x="636.9999999999999" y="566.0"/>
      <point x="646.0" y="594.3333333333334" type="curve" smooth="yes"/>
      <point x="658.0" y="632.0000000000001"/>
      <point x="656.0" y="657.3333333333331"/>
      <point x="639.6666666666666" y="678.0" type="curve" smooth="yes"/>
      <point x="622.0" y="700.6666666666667"/>
      <point x="564.9999999999999" y="720.0"/>
      <point x="476.66666666666663" y="720.0" type="curve" smooth="yes"/>
      <point x="275.66666666666663" y="720.0"/>
      <point x="125.99999999999997" y="570.6666666666666"/>
      <point x="73.66666666666664" y="324.6666666666667" type="curve" smooth="yes"/>
      <point x="70.99999999999999" y="312.3333333333333" type="line" smooth="yes"/>
      <point x="28.666666666666657" y="117.66666666666669"/>
      <point x="90.33333333333336" y="-20.0"/>
      <point x="284.3333333333333" y="-20.0" type="curve" smooth="yes"/>
      <point x="371.6666666666666" y="-20.0"/>
      <point x="428.3333333333333" y="-6.333333333333333"/>
      <point x="471.33333333333326" y="28.666666666666664" type="curve" smooth="yes"/>
      <point x="505.3333333333333" y="55.66666666666667"/>
      <point x="528.6666666666669" y="97.99999999999999"/>
      <point x="536.6666666666669" y="149.00000000000003" type="curve" smooth="yes"/>
      <point x="541.3333333333334" y="176.33333333333331"/>
      <point x="540.3333333333335" y="200.33333333333334"/>
      <point x="533.3333333333335" y="222.33333333333326" type="curve"/>
      <point x="527.3333333333333" y="222.33333333333326" type="line"/>
      <point x="464.9999999999999" y="167.66666666666663"/>
      <point x="404.6666666666667" y="150.66666666666669"/>
      <point x="334.00000000000006" y="150.66666666666666" type="curve" smooth="yes"/>
      <point x="278.33333333333337" y="150.66666666666669"/>
      <point x="252.66666666666663" y="157.33333333333334"/>
      <point x="231.33333333333334" y="175.99999999999997" type="curve"/>
      <point x="229.99999999999997" y="208.6666666666666"/>
      <point x="235.00000000000003" y="262.6666666666667"/>
      <point x="252.66666666666669" y="324.00000000000006" type="curve" smooth="yes"/>
      <point x="257.33333333333337" y="340.3333333333333" type="line" smooth="yes"/>
      <point x="305.66666666666674" y="506.00000000000006"/>
      <point x="369.3333333333334" y="557.3333333333334"/>
    </contour>
    <contour>
      <point x="464.6666666666667" y="875.0" type="curve"/>
      <point x="468.6666666666667" y="844.6666666666667"/>
      <point x="469.0" y="821.0"/>
      <point x="462.00000000000006" y="782.0000000000001" type="curve" smooth="yes"/>
      <point x="449.33333333333326" y="710.0"/>
      <point x="392.3333333333333" y="526.0"/>
      <point x="373.0" y="440.6666666666667" type="curve" smooth="yes"/>
      <point x="368.33333333333337" y="418.99999999999994"/>
      <point x="368.3333333333333" y="408.00000000000006"/>
      <point x="376.66666666666674" y="401.33333333333326" type="curve" smooth="yes"/>
      <point x="387.3333333333333" y="393.3333333333333"/>
      <point x="407.0" y="388.0"/>
      <point x="439.66666666666663" y="385.99999999999994" type="curve"/>
      <point x="501.3333333333332" y="510.00000000000006"/>
      <point x="611.9999999999999" y="716.9999999999999"/>
      <point x="626.9999999999999" y="797.0" type="curve" smooth="yes"/>
      <point x="638.3333333333334" y="855.0"/>
      <point x="617.6666666666666" y="885.0"/>
      <point x="542.6666666666667" y="885.0" type="curve" smooth="yes"/>
      <point x="505.6666666666666" y="885.0"/>
      <point x="482.66666666666663" y="881.0"/>
    </contour>
    <contour>
      <point x="148.66666666666666" y="-83.33333333333333" type="curve" smooth="yes"/>
      <point x="134.0" y="-146.99999999999997"/>
      <point x="156.66666666666663" y="-174.0"/>
      <point x="228.66666666666666" y="-174.0" type="curve" smooth="yes"/>
      <point x="264.66666666666674" y="-174.0"/>
      <point x="287.6666666666667" y="-170.0"/>
      <point x="307.3333333333333" y="-164.0" type="curve"/>
      <point x="303.33333333333337" y="-136.33333333333334"/>
      <point x="303.66666666666663" y="-109.0"/>
      <point x="310.0" y="-71.0" type="curve" smooth="yes"/>
      <point x="323.66666666666663" y="9.000000000000002"/>
      <point x="365.0" y="164.33333333333334"/>
      <point x="401.00000000000006" y="279.0" type="curve" smooth="yes"/>
      <point x="405.66666666666674" y="293.99999999999994"/>
      <point x="405.6666666666667" y="303.33333333333337"/>
      <point x="396.6666666666667" y="309.33333333333337" type="curve"/>
      <point x="383.99999999999994" y="317.33333333333337"/>
      <point x="366.00000000000006" y="321.3333333333333"/>
      <point x="332.3333333333333" y="325.0" type="curve"/>
      <point x="254.00000000000003" y="186.0"/>
      <point x="169.99999999999997" y="9.999999999999996"/>
    </contour>
  </outline>
</glyph>
<glyph name="summation" format="2">
  <advance width="600.0"/>
  <unicode hex="2211"/>
  <outline>
    <contour>
      <point x="144.99999999999997" y="700.0" type="line"/>
      <point x="132.66666666666669" y="679.0"/>
      <point x="120.66666666666667" y="652.6666666666667"/>
      <point x="112.33333333333334" y="616.0" type="curve" smooth="yes"/>
      <point x="96.66666666666669" y="547.3333333333334"/>
      <point x="123.33333333333336" y="520.6666666666667"/>
      <point x="177.33333333333334" y="520.6666666666667" type="curve" smooth="yes"/>
      <point x="617.6666666666666" y="520.6666666666667" type="line"/>
      <point x="633.9999999999999" y="539.6666666666666"/>
      <point x="647.6666666666667" y="561.6666666666666"/>
      <point x="657.3333333333333" y="601.0" type="curve" smooth="yes"/>
      <point x="672.3333333333333" y="663.6666666666666"/>
      <point x="652.9999999999999" y="700.0"/>
      <point x="598.0" y="700.0" type="curve"/>
    </contour>
    <contour>
      <point x="475.3333333333333" y="-115.33333333333333" type="curve" smooth="yes"/>
      <point x="488.6666666666667" y="-51.66666666666667"/>
      <point x="473.66666666666674" y="-22.00000000000001"/>
      <point x="408.0" y="-22.00000000000001" type="curve" smooth="yes"/>
      <point x="224.3333333333333" y="-22.00000000000001" type="line"/>
      <point x="221.66666666666663" y="-16.000000000000007" type="line"/>
      <point x="323.99999999999994" y="34.999999999999986"/>
      <point x="436.0548629417999" y="128.6252551880667"/>
      <point x="489.33333333333326" y="200.0" type="curve" smooth="yes"/>
      <point x="501.6666666666667" y="216.33333333333331"/>
      <point x="510.66666666666663" y="232.00000000000003"/>
      <point x="516.3333333333333" y="253.66666666666666" type="curve" smooth="yes"/>
      <point x="519.6666666666666" y="267.0"/>
      <point x="521.0" y="286.33333333333337"/>
      <point x="517.0" y="305.0" type="curve"/>
      <point x="473.66666666666674" y="342.33333333333326"/>
      <point x="443.0" y="384.3333333333333"/>
      <point x="417.3333333333333" y="435.3333333333333" type="curve" smooth="yes"/>
      <point x="390.33333333333326" y="481.0"/>
      <point x="372.6666666666667" y="502.3333333333333"/>
      <point x="338.6666666666667" y="514.6666666666666" type="curve"/>
      <point x="361.6666666666667" y="609.6666666666667" type="line"/>
      <point x="166.0" y="609.6666666666667" type="line"/>
      <point x="178.3333333333333" y="456.6666666666667"/>
      <point x="223.0" y="353.6666666666666"/>
      <point x="310.3333333333334" y="251.3333333333334" type="curve"/>
      <point x="223.66666666666669" y="151.66666666666666"/>
      <point x="112.33333333333333" y="58.66666666666666"/>
      <point x="-17.333333333333336" y="-12.333333333333345" type="curve"/>
      <point x="-32.33333333333332" y="-33.000000000000014"/>
      <point x="-40.666666666666664" y="-50.33333333333336"/>
      <point x="-47.0" y="-78.0" type="curve" smooth="yes"/>
      <point x="-61.999999999999986" y="-144.33333333333331"/>
      <point x="-29.666666666666668" y="-200.0"/>
      <point x="35.0" y="-200.0" type="curve" smooth="yes"/>
      <point x="440.6666666666667" y="-200.0" type="line"/>
      <point x="453.66666666666663" y="-182.66666666666666"/>
      <point x="466.66666666666663" y="-158.33333333333331"/>
    </contour>
  </outline>
</glyph>
<glyph name="squarewhite" format="2">
  <advance width="600.0"/>
  <unicode hex="25A1"/>
  <outline>
    <contour>
      <point x="30.00000000000001" y="626.6666666666666" type="line"/>
      <point x="30.00000000000001" y="149.33333333333331" type="line" smooth="yes"/>
      <point x="30.00000000000001" y="114.33333333333334"/>
      <point x="37.00000000000001" y="93.33333333333334"/>
      <point x="53.0" y="93.33333333333334" type="curve" smooth="yes"/>
      <point x="563.3333333333335" y="93.33333333333334" type="line"/>
      <point x="563.3333333333335" y="570.6666666666666" type="line" smooth="yes"/>
      <point x="563.3333333333335" y="605.6666666666666"/>
      <point x="556.3333333333336" y="626.6666666666666"/>
      <point x="540.3333333333336" y="626.6666666666666" type="curve" smooth="yes"/>
    </contour>
    <contour>
      <point x="124.6666666666667" y="519.9999999999999" type="curve"/>
      <point x="461.6666666666667" y="519.9999999999999" type="line"/>
      <point x="454.66666666666663" y="400.33333333333337"/>
      <point x="455.6666666666667" y="309.6666666666667"/>
      <point x="468.6666666666667" y="200.0" type="curve"/>
      <point x="131.6666666666667" y="200.0" type="line"/>
      <point x="138.66666666666669" y="319.6666666666667"/>
      <point x="137.6666666666667" y="410.33333333333337"/>
    </contour>
  </outline>
</glyph>
<glyph name="triangleupwhite" format="2">
  <advance width="600.0"/>
  <unicode hex="25B3"/>
  <outline>
    <contour>
      <point x="231.33333333333331" y="639.3333333333334" type="curve"/>
      <point x="101.33333333333334" y="476.33333333333337"/>
      <point x="-27.666666666666664" y="188.33333333333331"/>
      <point x="-28.33333333333333" y="161.33333333333331" type="curve" smooth="yes"/>
      <point x="-27.666666666666664" y="141.33333333333331"/>
      <point x="-10.666666666666664" y="110.66666666666667"/>
      <point x="0.3333333333333357" y="104.0" type="curve"/>
      <point x="158.33333333333334" y="90.0"/>
      <point x="350.99999999999994" y="90.0"/>
      <point x="501.99999999999994" y="104.0" type="curve" smooth="yes"/>
      <point x="523.0" y="106.66666666666667"/>
      <point x="544.3333333333335" y="110.66666666666667"/>
      <point x="553.0000000000001" y="117.0" type="curve" smooth="yes"/>
      <point x="562.0000000000001" y="125.66666666666666"/>
      <point x="572.0000000000001" y="152.66666666666669"/>
      <point x="575.6666666666667" y="174.33333333333334" type="curve"/>
      <point x="522.0" y="319.0"/>
      <point x="438.33333333333326" y="465.6666666666667"/>
      <point x="363.99999999999994" y="578.3333333333334" type="curve" smooth="yes"/>
      <point x="339.33333333333326" y="614.6666666666666"/>
      <point x="326.99999999999994" y="623.6666666666666"/>
      <point x="317.99999999999994" y="631.3333333333334" type="curve" smooth="yes"/>
      <point x="310.99999999999994" y="636.3333333333333"/>
      <point x="300.99999999999994" y="639.3333333333334"/>
      <point x="288.99999999999994" y="638.6666666666666" type="curve" smooth="yes"/>
      <point x="273.99999999999994" y="639.3333333333334"/>
      <point x="237.33333333333331" y="639.3333333333334"/>
    </contour>
    <contour>
      <point x="508.66666666666663" y="205.0" type="line"/>
      <point x="350.66666666666663" y="188.0"/>
      <point x="183.0" y="190.33333333333331"/>
      <point x="30.0" y="203.0" type="curve"/>
      <point x="109.33333333333331" y="184.66666666666666" type="line"/>
      <point x="82.33333333333331" y="220.66666666666666" type="line"/>
      <point x="71.33333333333331" y="147.66666666666669" type="line"/>
      <point x="121.33333333333333" y="288.66666666666663"/>
      <point x="219.0" y="464.6666666666667"/>
      <point x="313.0" y="592.0" type="curve"/>
      <point x="252.66666666666666" y="533.0000000000001" type="line"/>
      <point x="299.6666666666667" y="533.0000000000001" type="line"/>
      <point x="239.33333333333334" y="590.0" type="line"/>
      <point x="335.66666666666663" y="460.6666666666667"/>
      <point x="419.3333333333333" y="309.33333333333337"/>
      <point x="469.33333333333326" y="161.66666666666666" type="curve"/>
      <point x="465.0" y="225.33333333333331" type="line"/>
      <point x="438.0" y="182.33333333333331" type="line"/>
    </contour>
  </outline>
</glyph>
<glyph name="trianglerightwhite" format="2">
  <advance width="600.0"/>
  <unicode hex="25B7"/>
  <outline>
    <contour>
      <point x="598.0" y="406.66666666666663" type="curve"/>
      <point x="435.0" y="536.6666666666667"/>
      <point x="149.99999999999997" y="664.6666666666667"/>
      <point x="122.99999999999999" y="664.6666666666667" type="curve" smooth="yes"/>
      <point x="103.00000000000001" y="664.6666666666667"/>
      <point x="72.33333333333336" y="647.6666666666667"/>
      <point x="66.33333333333336" y="636.6666666666667" type="curve"/>
      <point x="52.33333333333334" y="478.66666666666663"/>
      <point x="52.33333333333334" y="286.0"/>
      <point x="66.33333333333336" y="135.0" type="curve" smooth="yes"/>
      <point x="68.33333333333334" y="114.0"/>
      <point x="72.33333333333336" y="92.00000000000001"/>
      <point x="79.33333333333334" y="84.00000000000001" type="curve" smooth="yes"/>
      <point x="87.33333333333336" y="75.00000000000001"/>
      <point x="115.00000000000003" y="64.33333333333334"/>
      <point x="135.99999999999997" y="61.33333333333334" type="curve"/>
      <point x="278.0" y="114.33333333333334"/>
      <point x="425.00000000000006" y="199.33333333333331"/>
      <point x="537.0" y="275.33333333333337" type="curve" smooth="yes"/>
      <point x="573.9999999999999" y="300.33333333333337"/>
      <point x="583.0" y="312.33333333333337"/>
      <point x="590.0" y="321.33333333333337" type="curve" smooth="yes"/>
      <point x="594.9999999999999" y="328.33333333333337"/>
      <point x="598.0" y="338.33333333333337"/>
      <point x="598.0" y="350.33333333333337" type="curve" smooth="yes"/>
      <point x="598.0" y="365.33333333333337"/>
      <point x="598.0" y="400.66666666666663"/>
    </contour>
    <contour>
      <point x="166.0" y="128.33333333333331" type="line"/>
      <point x="148.99999999999997" y="286.33333333333337"/>
      <point x="151.99999999999997" y="454.0"/>
      <point x="163.99999999999997" y="607.0" type="curve"/>
      <point x="146.0" y="528.0" type="line"/>
      <point x="181.99999999999997" y="555.0" type="line"/>
      <point x="108.6666666666667" y="565.6666666666667" type="line"/>
      <point x="249.66666666666666" y="515.6666666666667"/>
      <point x="423.0" y="418.66666666666663"/>
      <point x="550.9999999999999" y="324.6666666666667" type="curve"/>
      <point x="492.33333333333337" y="385.0" type="line"/>
      <point x="492.33333333333337" y="338.0" type="line"/>
      <point x="548.9999999999999" y="398.3333333333333" type="line"/>
      <point x="419.0" y="301.33333333333337"/>
      <point x="270.3333333333333" y="217.66666666666663"/>
      <point x="123.33333333333331" y="167.66666666666666" type="curve"/>
      <point x="187.0" y="171.66666666666669" type="line"/>
      <point x="143.99999999999997" y="198.66666666666669" type="line"/>
    </contour>
  </outline>
</glyph>
<glyph name="gmtr:diamondwhite" format="2">
  <advance width="600.0"/>
  <unicode hex="25C7"/>
  <outline>
    <contour>
      <point x="617.3333333333334" y="351.0" type="curve" smooth="yes"/>
      <point x="617.3333333333334" y="372.0"/>
      <point x="606.3333333333334" y="388.6666666666667"/>
      <point x="582.3333333333334" y="419.6666666666667" type="curve" smooth="yes"/>
      <point x="527.3333333333334" y="488.6666666666667"/>
      <point x="444.99999999999994" y="575.6666666666666"/>
      <point x="375.0" y="635.6666666666666" type="curve" smooth="yes"/>
      <point x="352.0" y="654.6666666666666"/>
      <point x="335.3333333333333" y="656.0"/>
      <point x="317.3333333333333" y="656.0" type="curve" smooth="yes"/>
      <point x="305.33333333333326" y="656.0"/>
      <point x="292.33333333333326" y="655.0"/>
      <point x="281.3333333333333" y="651.0" type="curve"/>
      <point x="196.33333333333337" y="581.0"/>
      <point x="97.33333333333333" y="473.6666666666667"/>
      <point x="53.33333333333334" y="416.6666666666667" type="curve" smooth="yes"/>
      <point x="22.333333333333332" y="376.6666666666667"/>
      <point x="17.333333333333332" y="364.0"/>
      <point x="17.333333333333332" y="343.0" type="curve" smooth="yes"/>
      <point x="17.333333333333332" y="324.6666666666667"/>
      <point x="27.333333333333332" y="310.3333333333333"/>
      <point x="51.33333333333334" y="279.3333333333333" type="curve" smooth="yes"/>
      <point x="107.33333333333333" y="207.33333333333334"/>
      <point x="190.6666666666667" y="125.99999999999997"/>
      <point x="260.66666666666663" y="68.0" type="curve" smooth="yes"/>
      <point x="283.66666666666663" y="49.0"/>
      <point x="306.33333333333326" y="45.0"/>
      <point x="320.3333333333333" y="45.0" type="curve" smooth="yes"/>
      <point x="330.3333333333333" y="45.0"/>
      <point x="348.0" y="46.0"/>
      <point x="357.0" y="50.0" type="curve"/>
      <point x="398.66666666666663" y="79.33333333333333"/>
      <point x="462.66666666666663" y="136.0"/>
      <point x="513.0" y="194.33333333333331" type="curve" smooth="yes"/>
      <point x="590.3333333333335" y="284.0"/>
      <point x="617.3333333333334" y="323.6666666666667"/>
    </contour>
    <contour>
      <point x="121.66666666666664" y="351.0" type="curve"/>
      <point x="174.66666666666666" y="417.0"/>
      <point x="252.66666666666666" y="496.0"/>
      <point x="351.3333333333333" y="581.0" type="curve"/>
      <point x="284.3333333333333" y="548.0" type="line"/>
      <point x="348.33333333333326" y="548.0" type="line"/>
      <point x="283.66666666666663" y="582.6666666666667" type="line"/>
      <point x="396.6666666666667" y="489.6666666666667"/>
      <point x="458.6666666666667" y="425.66666666666663"/>
      <point x="511.00000000000006" y="351.0" type="curve"/>
      <point x="459.0" y="275.0"/>
      <point x="388.0" y="199.66666666666669"/>
      <point x="272.0" y="107.66666666666667" type="curve"/>
      <point x="360.66666666666663" y="150.66666666666666" type="line"/>
      <point x="280.99999999999994" y="150.66666666666666" type="line"/>
      <point x="369.66666666666663" y="106.33333333333333" type="line"/>
      <point x="257.66666666666663" y="196.33333333333334"/>
      <point x="175.66666666666666" y="270.0"/>
    </contour>
  </outline>
</glyph>
<glyph name="lozenge" format="2">
  <advance width="600.0"/>
  <unicode hex="25CA"/>
  <outline>
    <contour>
      <point x="333.99999999999994" y="704.3333333333334" type="curve"/>
      <point x="261.0" y="647.6666666666666"/>
      <point x="155.00000000000006" y="533.6666666666666"/>
      <point x="81.33333333333334" y="423.0" type="curve" smooth="yes"/>
      <point x="56.33333333333335" y="388.66666666666663"/>
      <point x="44.33333333333334" y="363.6666666666667"/>
      <point x="41.33333333333334" y="352.0" type="curve" smooth="yes"/>
      <point x="38.333333333333336" y="341.0"/>
      <point x="36.0" y="316.33333333333337"/>
      <point x="42.66666666666667" y="273.0" type="curve" smooth="yes"/>
      <point x="58.33333333333336" y="180.66666666666669"/>
      <point x="80.66666666666667" y="101.33333333333334"/>
      <point x="120.00000000000001" y="37.33333333333333" type="curve" smooth="yes"/>
      <point x="144.33333333333331" y="-3.666666666666667"/>
      <point x="162.33333333333331" y="-10.0"/>
      <point x="206.66666666666669" y="-10.0" type="curve" smooth="yes"/>
      <point x="244.66666666666669" y="-10.0"/>
      <point x="268.66666666666663" y="-8.0"/>
      <point x="299.33333333333326" y="-3.333333333333335" type="curve"/>
      <point x="376.99999999999994" y="49.333333333333336"/>
      <point x="483.0" y="167.33333333333334"/>
      <point x="558.3333333333334" y="279.0" type="curve" smooth="yes"/>
      <point x="581.3333333333334" y="313.0"/>
      <point x="593.3333333333333" y="338.0"/>
      <point x="597.3333333333333" y="352.0" type="curve" smooth="yes"/>
      <point x="600.3333333333333" y="363.0"/>
      <point x="599.0" y="388.0"/>
      <point x="594.3333333333333" y="423.0" type="curve" smooth="yes"/>
      <point x="581.0" y="525.0"/>
      <point x="551.0" y="605.6666666666667"/>
      <point x="515.3333333333334" y="665.3333333333334" type="curve" smooth="yes"/>
      <point x="492.00000000000006" y="706.0"/>
      <point x="473.66666666666663" y="713.0"/>
      <point x="423.6666666666666" y="713.0" type="curve" smooth="yes"/>
      <point x="386.9999999999999" y="713.0"/>
      <point x="363.99999999999994" y="711.0"/>
    </contour>
    <contour>
      <point x="225.33333333333334" y="348.66666666666663" type="curve"/>
      <point x="268.0" y="422.0"/>
      <point x="316.6666666666667" y="483.0"/>
      <point x="393.6666666666667" y="559.3333333333334" type="curve"/>
      <point x="347.3333333333333" y="540.6666666666666" type="line"/>
      <point x="399.99999999999994" y="540.6666666666666" type="line" smooth="yes"/>
      <point x="363.6666666666667" y="559.6666666666667" type="line"/>
      <point x="393.3333333333333" y="485.9999999999999"/>
      <point x="408.66666666666663" y="428.6666666666667"/>
      <point x="413.0000000000001" y="354.6666666666666" type="curve"/>
      <point x="371.00000000000006" y="279.3333333333333"/>
      <point x="322.66666666666663" y="216.33333333333334"/>
      <point x="247.33333333333334" y="143.33333333333331" type="curve"/>
      <point x="293.6666666666667" y="163.0" type="line"/>
      <point x="241.0" y="163.0" type="line" smooth="yes"/>
      <point x="277.3333333333333" y="143.66666666666666" type="line"/>
      <point x="244.66666666666669" y="219.0"/>
      <point x="230.33333333333331" y="275.3333333333333"/>
    </contour>
  </outline>
</glyph>
<glyph name="heartwhite" format="2">
  <advance width="600.0"/>
  <unicode hex="2661"/>
  <outline>
    <contour>
      <point x="195.00000000000003" y="656.0" type="curve" smooth="yes"/>
      <point x="94.99999999999999" y="656.0"/>
      <point x="35.0" y="579.0"/>
      <point x="35.0" y="456.0" type="curve" smooth="yes"/>
      <point x="35.0" y="439.0" type="line" smooth="yes"/>
      <point x="35.0" y="314.0"/>
      <point x="119.6666666666667" y="177.66666666666666"/>
      <point x="236.33333333333337" y="107.0" type="curve" smooth="yes"/>
      <point x="278.33333333333326" y="81.66666666666667"/>
      <point x="295.3333333333333" y="75.0"/>
      <point x="321.66666666666663" y="75.0" type="curve" smooth="yes"/>
      <point x="339.33333333333326" y="75.0"/>
      <point x="366.66666666666663" y="76.0"/>
      <point x="384.6666666666667" y="79.0" type="curve"/>
      <point x="515.9999999999999" y="142.0"/>
      <point x="625.0" y="290.0"/>
      <point x="625.0" y="443.0" type="curve" smooth="yes"/>
      <point x="625.0" y="456.0" type="line" smooth="yes"/>
      <point x="625.0" y="594.0"/>
      <point x="557.0000000000001" y="656.0"/>
      <point x="466.99999999999994" y="656.0" type="curve" smooth="yes"/>
      <point x="386.99999999999994" y="656.0"/>
      <point x="342.99999999999994" y="609.6666666666666"/>
      <point x="325.99999999999994" y="525.3333333333334" type="curve"/>
      <point x="337.99999999999994" y="525.3333333333334" type="line"/>
      <point x="321.99999999999994" y="610.6666666666666"/>
      <point x="272.99999999999994" y="656.0"/>
    </contour>
    <contour>
      <point x="353.33333333333326" y="147.0" type="line"/>
      <point x="215.0" y="203.33333333333334"/>
      <point x="129.66666666666669" y="305.66666666666663"/>
      <point x="129.66666666666669" y="446.6666666666667" type="curve" smooth="yes"/>
      <point x="129.66666666666669" y="460.0" type="line" smooth="yes"/>
      <point x="129.66666666666669" y="525.6666666666666"/>
      <point x="154.66666666666669" y="561.3333333333333"/>
      <point x="200.33333333333331" y="561.3333333333333" type="curve" smooth="yes"/>
      <point x="246.99999999999991" y="561.3333333333333"/>
      <point x="265.6666666666666" y="528.3333333333335"/>
      <point x="272.0" y="481.33333333333337" type="curve" smooth="yes"/>
      <point x="274.0" y="458.66666666666663"/>
      <point x="280.66666666666663" y="453.0"/>
      <point x="295.66666666666663" y="453.0" type="curve" smooth="yes"/>
      <point x="383.66666666666663" y="453.0" type="line"/>
      <point x="388.66666666666663" y="522.3333333333334"/>
      <point x="411.0" y="561.3333333333333"/>
      <point x="456.66666666666663" y="561.3333333333333" type="curve" smooth="yes"/>
      <point x="504.6666666666667" y="561.3333333333333"/>
      <point x="531.0000000000001" y="526.6666666666666"/>
      <point x="531.0000000000001" y="458.0" type="curve" smooth="yes"/>
      <point x="531.0000000000001" y="445.33333333333337" type="line" smooth="yes"/>
      <point x="531.0000000000001" y="302.6666666666667"/>
      <point x="426.0" y="196.66666666666669"/>
      <point x="311.99999999999994" y="147.0" type="curve"/>
      <point x="370.66666666666674" y="160.33333333333331" type="line"/>
      <point x="303.33333333333326" y="160.33333333333331" type="line"/>
    </contour>
  </outline>
</glyph>
<glyph name="heartblack" format="2">
  <advance width="600.0"/>
  <unicode hex="2665"/>
  <outline>
    <contour>
      <point x="197.66666666666669" y="646.0" type="curve" smooth="yes"/>
      <point x="107.66666666666666" y="646.0"/>
      <point x="50.333333333333336" y="577.0"/>
      <point x="50.333333333333336" y="477.3333333333333" type="curve" smooth="yes"/>
      <point x="50.333333333333336" y="429.0" type="line" smooth="yes"/>
      <point x="50.333333333333336" y="300.6666666666667"/>
      <point x="135.00000000000003" y="187.0"/>
      <point x="274.99999999999994" y="101.66666666666667" type="curve" smooth="yes"/>
      <point x="304.99999999999994" y="83.66666666666667"/>
      <point x="317.3333333333333" y="79.66666666666667"/>
      <point x="334.99999999999994" y="79.66666666666667" type="curve" smooth="yes"/>
      <point x="345.99999999999994" y="79.66666666666667"/>
      <point x="353.99999999999994" y="80.0"/>
      <point x="363.3333333333333" y="81.0" type="curve"/>
      <point x="519.3333333333334" y="171.33333333333331"/>
      <point x="620.3333333333334" y="288.6666666666667"/>
      <point x="620.3333333333334" y="431.0" type="curve" smooth="yes"/>
      <point x="620.3333333333334" y="477.3333333333333" type="line" smooth="yes"/>
      <point x="620.3333333333334" y="584.0"/>
      <point x="557.6666666666667" y="646.0"/>
      <point x="471.66666666666663" y="646.0" type="curve" smooth="yes"/>
      <point x="389.66666666666663" y="646.0"/>
      <point x="339.66666666666663" y="591.6666666666666"/>
      <point x="326.66666666666663" y="498.0" type="curve"/>
      <point x="340.66666666666663" y="498.0" type="line"/>
      <point x="332.66666666666663" y="592.0"/>
      <point x="280.99999999999994" y="646.0"/>
    </contour>
  </outline>
</glyph>
<glyph name="L.sans" format="2">
  <advance width="600.0"/>
  <anchor x="249.33333333333326" y="711.0" name="top"/>
  <anchor x="215.99999999999997" y="-1.0" name="bottom"/>
  <anchor x="470.3333333333333" y="401.6666666666667" name="dot"/>
  <anchor x="515.0" y="596.6666666666666" name="caronslovak"/>
  <anchor x="178.33333333333334" y="374.0" name="slash"/>
  <outline>
    <contour>
      <point x="181.66666666666669" y="0.0" type="curve" smooth="yes"/>
      <point x="493.3333333333332" y="0.0" type="line"/>
      <point x="500.6666666666666" y="16.000000000000004"/>
      <point x="506.99999999999983" y="33.66666666666667"/>
      <point x="512.3333333333333" y="53.999999999999986" type="curve" smooth="yes"/>
      <point x="530.0" y="125.66666666666667"/>
      <point x="521.6666666666667" y="194.99999999999997"/>
      <point x="427.33333333333326" y="194.99999999999997" type="curve" smooth="yes"/>
      <point x="235.0" y="194.99999999999997" type="line"/>
      <point x="246.0" y="313.6666666666667"/>
      <point x="324.3333333333332" y="428.6666666666667"/>
      <point x="346.3333333333332" y="569.6666666666666" type="curve" smooth="yes"/>
      <point x="358.3333333333332" y="649.3333333333333"/>
      <point x="344.6666666666666" y="710.0"/>
      <point x="242.33333333333331" y="710.0" type="curve" smooth="yes"/>
      <point x="208.99999999999997" y="710.0"/>
      <point x="178.3333333333334" y="706.6666666666666"/>
      <point x="148.6666666666667" y="700.0" type="curve"/>
      <point x="155.00000000000006" y="666.3333333333333"/>
      <point x="157.33333333333337" y="626.9999999999999"/>
      <point x="149.33333333333334" y="586.3333333333333" type="curve" smooth="yes"/>
      <point x="122.99999999999999" y="450.33333333333326"/>
      <point x="53.666666666666686" y="336.0"/>
      <point x="27.333333333333336" y="193.33333333333331" type="curve" smooth="yes"/>
      <point x="10.333333333333332" y="100.33333333333334"/>
      <point x="89.99999999999997" y="0.0"/>
    </contour>
  </outline>
</glyph>
<glyph name="Z.sans" format="2">
  <advance width="600.0"/>
  <anchor x="410.0" y="711.0" name="top"/>
  <anchor x="242.33333333333331" y="0.0" name="bottom"/>
  <outline>
    <contour>
      <point x="496.99999999999994" y="0.0" type="line"/>
      <point x="505.00000000000006" y="18.0"/>
      <point x="514.9999999999999" y="45.33333333333333"/>
      <point x="520.6666666666666" y="69.66666666666666" type="curve" smooth="yes"/>
      <point x="539.0" y="143.33333333333331"/>
      <point x="518.0" y="197.99999999999997"/>
      <point x="443.3333333333333" y="197.99999999999997" type="curve" smooth="yes"/>
      <point x="428.66666666666663" y="197.99999999999997" type="line" smooth="yes"/>
      <point x="392.66666666666663" y="197.99999999999997"/>
      <point x="343.0" y="195.0"/>
      <point x="268.66666666666663" y="181.33333333333331" type="curve"/>
      <point x="269.66666666666663" y="187.33333333333331" type="line"/>
      <point x="331.6666666666667" y="221.66666666666666"/>
      <point x="385.6666666666666" y="257.0"/>
      <point x="442.0" y="301.3333333333333" type="curve" smooth="yes"/>
      <point x="537.0" y="376.66666666666674"/>
      <point x="616.3333333333334" y="457.33333333333337"/>
      <point x="628.0" y="505.0" type="curve"/>
      <point x="630.3333333333333" y="514.0" type="line"/>
      <point x="653.6666666666665" y="605.0"/>
      <point x="610.3333333333334" y="700.0"/>
      <point x="555.3333333333333" y="700.0" type="curve" smooth="yes"/>
      <point x="160.66666666666669" y="700.0" type="line"/>
      <point x="150.0" y="677.9999999999999"/>
      <point x="140.00000000000003" y="654.3333333333334"/>
      <point x="134.33333333333334" y="632.3333333333335" type="curve" smooth="yes"/>
      <point x="117.33333333333334" y="562.9999999999999"/>
      <point x="143.33333333333334" y="516.3333333333334"/>
      <point x="218.99999999999997" y="516.3333333333334" type="curve" smooth="yes"/>
      <point x="288.66666666666663" y="516.3333333333334" type="line" smooth="yes"/>
      <point x="349.0" y="516.3333333333334"/>
      <point x="387.6666666666667" y="517.6666666666666"/>
      <point x="432.66666666666663" y="520.3333333333334" type="curve"/>
      <point x="431.0" y="514.3333333333334" type="line"/>
      <point x="396.66666666666674" y="466.3333333333333"/>
      <point x="358.33333333333337" y="427.66666666666674"/>
      <point x="314.6666666666668" y="386.6666666666667" type="curve" smooth="yes"/>
      <point x="231.99999999999997" y="307.0"/>
      <point x="135.33333333333331" y="242.66666666666666"/>
      <point x="3.0000000000000027" y="171.33333333333334" type="curve"/>
      <point x="0.6666666666666679" y="160.33333333333331" type="line" smooth="yes"/>
      <point x="-26.66666666666666" y="52.33333333333333"/>
      <point x="-1.6666666666666599" y="0.0"/>
      <point x="93.99999999999999" y="0.0" type="curve" smooth="yes"/>
    </contour>
  </outline>
</glyph>
<glyph name="braceleft.case" format="2">
  <advance width="600.0"/>
  <outline>
    <contour>
      <point x="399.3333333333333" y="215.6666666666667" type="curve" smooth="yes"/>
      <point x="410.6666666666667" y="254.0"/>
      <point x="395.3333333333333" y="294.0"/>
      <point x="334.33333333333337" y="311.33333333333337" type="curve"/>
      <point x="336.33333333333337" y="317.99999999999994" type="line"/>
      <point x="409.6666666666666" y="337.0"/>
      <point x="434.00000000000006" y="365.6666666666667"/>
      <point x="444.3333333333333" y="407.33333333333326" type="curve" smooth="yes"/>
      <point x="455.0" y="449.0"/>
      <point x="446.33333333333326" y="493.33333333333326"/>
      <point x="439.33333333333326" y="526.0000000000001" type="curve" smooth="yes"/>
      <point x="437.33333333333337" y="532.3333333333334"/>
      <point x="436.66666666666663" y="540.6666666666667"/>
      <point x="435.99999999999994" y="544.3333333333334" type="curve"/>
      <point x="461.6666666666667" y="552.0"/>
      <point x="490.6666666666666" y="554.6666666666667"/>
      <point x="517.3333333333333" y="554.6666666666667" type="curve" smooth="yes"/>
      <point x="550.3333333333334" y="554.6666666666667"/>
      <point x="577.6666666666665" y="551.0"/>
      <point x="592.9999999999999" y="546.6666666666667" type="curve"/>
      <point x="599.0" y="546.6666666666667" type="line"/>
      <point x="609.6666666666666" y="567.3333333333334"/>
      <point x="616.3333333333334" y="587.0"/>
      <point x="623.6666666666666" y="616.6666666666666" type="curve" smooth="yes"/>
      <point x="643.0" y="692.3333333333333"/>
      <point x="619.6666666666667" y="750.0"/>
      <point x="565.6666666666667" y="750.0" type="curve"/>
      <point x="562.3333333333334" y="750.0" type="line" smooth="yes"/>
      <point x="421.99999999999994" y="750.0"/>
      <point x="307.0" y="692.3333333333333"/>
      <point x="289.00000000000006" y="618.3333333333334" type="curve" smooth="yes"/>
      <point x="287.6666666666667" y="612.6666666666667" type="line" smooth="yes"/>
      <point x="278.3333333333333" y="574.0"/>
      <point x="294.99999999999994" y="509.6666666666667"/>
      <point x="283.0" y="460.0" type="curve" smooth="yes"/>
      <point x="271.66666666666663" y="412.6666666666667"/>
      <point x="244.00000000000003" y="406.6666666666667"/>
      <point x="149.0" y="406.6666666666667" type="curve" smooth="yes"/>
      <point x="101.66666666666666" y="406.6666666666667" type="line"/>
      <point x="91.33333333333333" y="391.00000000000006"/>
      <point x="85.00000000000001" y="374.3333333333333"/>
      <point x="78.33333333333333" y="347.3333333333333" type="curve" smooth="yes"/>
      <point x="60.0" y="275.6666666666667"/>
      <point x="81.66666666666669" y="233.00000000000003"/>
      <point x="135.33333333333337" y="233.00000000000003" type="curve" smooth="yes"/>
      <point x="139.6666666666667" y="233.00000000000003" type="line" smooth="yes"/>
      <point x="201.00000000000003" y="233.00000000000003"/>
      <point x="222.0" y="222.33333333333334"/>
      <point x="212.66666666666666" y="185.0" type="curve" smooth="yes"/>
      <point x="200.33333333333331" y="135.66666666666666"/>
      <point x="149.33333333333331" y="64.00000000000001"/>
      <point x="140.33333333333331" y="25.33333333333334" type="curve" smooth="yes"/>
      <point x="139.66666666666669" y="20.666666666666668" type="line" smooth="yes"/>
      <point x="123.0" y="-50.66666666666667"/>
      <point x="159.33333333333331" y="-112.0"/>
      <point x="331.3333333333333" y="-112.0" type="curve" smooth="yes"/>
      <point x="336.33333333333337" y="-112.0" type="line" smooth="yes"/>
      <point x="405.00000000000006" y="-112.0"/>
      <point x="457.33333333333337" y="-43.33333333333335"/>
      <point x="483.6666666666667" y="64.33333333333331" type="curve" smooth="yes"/>
      <point x="486.66666666666674" y="75.66666666666666"/>
      <point x="488.33333333333337" y="87.33333333333333"/>
      <point x="490.0" y="97.33333333333331" type="curve"/>
      <point x="483.9999999999999" y="97.33333333333331" type="line"/>
      <point x="449.6666666666667" y="88.0"/>
      <point x="423.99999999999994" y="83.66666666666666"/>
      <point x="390.99999999999994" y="83.66666666666666" type="curve" smooth="yes"/>
      <point x="366.3333333333333" y="83.66666666666666"/>
      <point x="345.66666666666663" y="85.66666666666666"/>
      <point x="326.33333333333326" y="92.66666666666666" type="curve"/>
      <point x="329.66666666666663" y="97.33333333333334"/>
      <point x="336.66666666666663" y="105.66666666666667"/>
      <point x="342.0" y="113.0" type="curve" smooth="yes"/>
      <point x="369.0" y="146.33333333333334"/>
      <point x="387.6666666666667" y="176.66666666666669"/>
    </contour>
  </outline>
</glyph>
<glyph name="bracketleft.case" format="2">
  <advance width="600.0"/>
  <outline>
    <contour>
      <point x="381.99999999999994" y="-67.66666666666667" type="line"/>
      <point x="395.3333333333332" y="-46.66666666666666"/>
      <point x="407.99999999999994" y="-20.666666666666664"/>
      <point x="415.9999999999999" y="10.333333333333307" type="curve" smooth="yes"/>
      <point x="435.6666666666666" y="88.99999999999997"/>
      <point x="412.66666666666663" y="118.3333333333333"/>
      <point x="355.9999999999999" y="118.3333333333333" type="curve"/>
      <point x="284.6666666666667" y="118.3333333333333" type="line"/>
      <point x="297.0" y="284.0"/>
      <point x="400.0" y="417.6666666666667"/>
      <point x="410.99999999999994" y="561.3333333333334" type="curve"/>
      <point x="565.6666666666665" y="561.3333333333334" type="line"/>
      <point x="579.6666666666667" y="584.6666666666667"/>
      <point x="588.3333333333333" y="603.0"/>
      <point x="595.0" y="630.6666666666666" type="curve" smooth="yes"/>
      <point x="613.3333333333333" y="711.3333333333333"/>
      <point x="594.3333333333334" y="746.6666666666666"/>
      <point x="530.3333333333335" y="746.6666666666666" type="curve"/>
      <point x="335.0" y="746.6666666666666" type="line" smooth="yes"/>
      <point x="296.33333333333326" y="746.6666666666666"/>
      <point x="269.33333333333326" y="744.0"/>
      <point x="235.99999999999994" y="737.6666666666666" type="curve"/>
      <point x="237.33333333333331" y="701.0"/>
      <point x="236.33333333333331" y="664.0"/>
      <point x="231.99999999999994" y="622.6666666666665" type="curve" smooth="yes"/>
      <point x="209.33333333333331" y="425.0"/>
      <point x="101.00000000000003" y="298.6666666666667"/>
      <point x="83.0" y="95.66666666666666" type="curve" smooth="yes"/>
      <point x="73.66666666666666" y="-8.333333333333332"/>
      <point x="110.0" y="-67.66666666666667"/>
      <point x="162.6666666666667" y="-67.66666666666667" type="curve" smooth="yes"/>
    </contour>
  </outline>
</glyph>
<glyph name="brevecomb.case" format="2">
  <anchor x="109.33333333333334" y="712.0" name="_top"/>
  <anchor x="160.0" y="917.3333333333334" name="top"/>
  <anchor x="181.0" y="998.0" name="hook"/>
  <outline>
    <contour>
      <point x="244.33333333333331" y="951.6666666666666" type="curve"/>
      <point x="224.00000000000003" y="914.0000000000001"/>
      <point x="195.6666666666667" y="896.6666666666666"/>
      <point x="150.33333333333334" y="894.6666666666666" type="curve"/>
      <point x="106.33333333333333" y="897.9999999999999"/>
      <point x="86.66666666666666" y="915.3333333333334"/>
      <point x="78.66666666666667" y="951.6666666666666" type="curve"/>
      <point x="37.66666666666668" y="951.3333333333334"/>
      <point x="12.000000000000009" y="948.0"/>
      <point x="-12.666666666666664" y="936.0" type="curve" smooth="yes"/>
      <point x="-26.000000000000007" y="929.6666666666666"/>
      <point x="-32.66666666666667" y="918.6666666666666"/>
      <point x="-31.0" y="904.0000000000001" type="curve" smooth="yes"/>
      <point x="-22.666666666666664" y="825.3333333333334"/>
      <point x="38.999999999999986" y="772.3333333333334"/>
      <point x="135.33333333333331" y="772.3333333333334" type="curve" smooth="yes"/>
      <point x="142.0" y="772.3333333333334" type="line" smooth="yes"/>
      <point x="244.33333333333331" y="772.3333333333334"/>
      <point x="313.3333333333333" y="809.9999999999999"/>
      <point x="347.99999999999994" y="904.0000000000001" type="curve" smooth="yes"/>
      <point x="353.3333333333333" y="917.9999999999999"/>
      <point x="351.6666666666667" y="930.3333333333333"/>
      <point x="339.66666666666663" y="937.0" type="curve" smooth="yes"/>
      <point x="320.3333333333333" y="947.9999999999999"/>
      <point x="286.33333333333326" y="952.3333333333334"/>
    </contour>
  </outline>
</glyph>
<glyph name="check" format="2">
  <advance width="600.0"/>
  <outline>
    <contour>
      <point x="407.0" y="112.66666666666669" type="line"/>
      <point x="472.99999999999994" y="299.6666666666667"/>
      <point x="532.0" y="503.3333333333333"/>
      <point x="623.0000000000001" y="659.3333333333333" type="curve"/>
      <point x="590.3333333333334" y="696.9999999999999"/>
      <point x="554.3333333333334" y="714.3333333333334"/>
      <point x="518.3333333333334" y="714.3333333333334" type="curve" smooth="yes"/>
      <point x="482.33333333333337" y="714.3333333333334"/>
      <point x="452.66666666666663" y="700.6666666666666"/>
      <point x="426.6666666666667" y="648.3333333333333" type="curve" smooth="yes"/>
      <point x="376.3333333333333" y="548.6666666666666"/>
      <point x="337.0" y="419.0"/>
      <point x="303.0" y="246.0" type="curve"/>
      <point x="342.0" y="261.99999999999994" type="line"/>
      <point x="259.3333333333333" y="261.99999999999994" type="line"/>
      <point x="302.3333333333333" y="246.0" type="line"/>
      <point x="287.3333333333333" y="305.0"/>
      <point x="282.3333333333333" y="369.66666666666663"/>
      <point x="278.3333333333333" y="449.0" type="curve"/>
      <point x="243.0" y="463.6666666666667"/>
      <point x="212.0" y="470.33333333333337"/>
      <point x="178.00000000000003" y="470.33333333333337" type="curve" smooth="yes"/>
      <point x="134.33333333333334" y="470.33333333333337"/>
      <point x="112.33333333333333" y="456.33333333333337"/>
      <point x="112.33333333333333" y="424.33333333333337" type="curve" smooth="yes"/>
      <point x="112.33333333333333" y="400.0"/>
      <point x="116.0" y="373.0"/>
      <point x="122.66666666666667" y="335.33333333333337" type="curve" smooth="yes"/>
      <point x="132.66666666666666" y="283.66666666666663"/>
      <point x="156.00000000000003" y="217.66666666666663"/>
      <point x="187.33333333333334" y="165.66666666666663" type="curve" smooth="yes"/>
      <point x="211.66666666666669" y="124.99999999999999"/>
      <point x="230.6666666666667" y="112.66666666666669"/>
      <point x="287.66666666666663" y="112.66666666666669" type="curve" smooth="yes"/>
    </contour>
  </outline>
</glyph>
<glyph name="dollar_braceleft.code" format="2">
  <advance width="1200.0"/>
  <outline>
    <contour>
      <point x="928.9999999999999" y="185.0" type="curve" smooth="yes"/>
      <point x="939.6666666666665" y="237.33333333333334"/>
      <point x="922.6666666666667" y="272.3333333333333"/>
      <point x="852.6666666666666" y="287.6666666666667" type="curve"/>
      <point x="854.3333333333334" y="294.33333333333326" type="line"/>
      <point x="932.9999999999999" y="317.66666666666663"/>
      <point x="972.3333333333334" y="354.3333333333334"/>
      <point x="988.3333333333334" y="414.6666666666667" type="curve" smooth="yes"/>
      <point x="1001.3333333333334" y="463.9999999999999"/>
      <point x="997.3333333333333" y="521.9999999999999"/>
      <point x="990.3333333333334" y="562.0" type="curve" smooth="yes"/>
      <point x="989.3333333333333" y="566.6666666666667"/>
      <point x="988.3333333333333" y="570.9999999999999"/>
      <point x="987.6666666666665" y="574.6666666666666" type="curve"/>
      <point x="1014.3333333333334" y="581.3333333333333"/>
      <point x="1040.3333333333335" y="584.0000000000001"/>
      <point x="1065.0000000000002" y="584.0000000000001" type="curve" smooth="yes"/>
      <point x="1097.0000000000002" y="584.0000000000001"/>
      <point x="1123.0000000000005" y="580.3333333333335"/>
      <point x="1138.666666666667" y="576.0000000000001" type="curve"/>
      <point x="1144.666666666667" y="576.0000000000001" type="line"/>
      <point x="1156.0" y="594.6666666666665"/>
      <point x="1163.0" y="613.0"/>
      <point x="1171.0" y="642.6666666666666" type="curve" smooth="yes"/>
      <point x="1189.6666666666667" y="718.3333333333333"/>
      <point x="1165.3333333333333" y="770.0"/>
      <point x="1097.0" y="770.0" type="curve"/>
      <point x="1091.0000000000005" y="770.0" type="line" smooth="yes"/>
      <point x="943.3333333333335" y="770.0"/>
      <point x="852.3333333333334" y="712.0"/>
      <point x="834.3333333333333" y="638.0" type="curve" smooth="yes"/>
      <point x="832.9999999999999" y="632.6666666666667" type="line" smooth="yes"/>
      <point x="822.6666666666666" y="592.3333333333331"/>
      <point x="839.3333333333334" y="527.6666666666666"/>
      <point x="824.3333333333333" y="468.0" type="curve" smooth="yes"/>
      <point x="809.6666666666667" y="413.33333333333337"/>
      <point x="765.3333333333333" y="386.66666666666663"/>
      <point x="660.9999999999998" y="386.66666666666663" type="curve" smooth="yes"/>
      <point x="527.6666666666666" y="386.66666666666663" type="line"/>
      <point x="484.3333333333333" y="213.00000000000003" type="line"/>
      <point x="658.9999999999999" y="213.00000000000003" type="line" smooth="yes"/>
      <point x="727.0000000000002" y="213.00000000000003"/>
      <point x="752.0" y="185.33333333333334"/>
      <point x="739.6666666666666" y="131.66666666666669" type="curve" smooth="yes"/>
      <point x="724.0" y="64.33333333333334"/>
      <point x="675.0" y="3.0"/>
      <point x="665.3333333333333" y="-35.66666666666667" type="curve" smooth="yes"/>
      <point x="663.3333333333333" y="-42.66666666666667" type="line" smooth="yes"/>
      <point x="644.6666666666666" y="-109.66666666666667"/>
      <point x="684.3333333333333" y="-172.0"/>
      <point x="828.6666666666667" y="-172.0" type="curve" smooth="yes"/>
      <point x="836.6666666666666" y="-172.0" type="line" smooth="yes"/>
      <point x="928.6666666666666" y="-172.0"/>
      <point x="978.3333333333335" y="-126.33333333333333"/>
      <point x="1005.3333333333334" y="-14.00000000000002" type="curve" smooth="yes"/>
      <point x="1009.6666666666667" y="4.999999999999989"/>
      <point x="1010.3333333333334" y="17.999999999999993"/>
      <point x="1009.3333333333334" y="27.99999999999997" type="curve"/>
      <point x="1003.3333333333334" y="27.99999999999997" type="line"/>
      <point x="971.3333333333335" y="18.99999999999998"/>
      <point x="947.0000000000001" y="14.33333333333331"/>
      <point x="914.0" y="14.33333333333331" type="curve" smooth="yes"/>
      <point x="889.6666666666667" y="14.33333333333331"/>
      <point x="867.9999999999999" y="16.333333333333318"/>
      <point x="847.9999999999999" y="23.33333333333332" type="curve"/>
      <point x="852.0" y="28.33333333333332"/>
      <point x="854.6666666666666" y="33.66666666666666"/>
      <point x="859.3333333333333" y="38.99999999999999" type="curve" smooth="yes"/>
      <point x="886.6666666666667" y="76.66666666666666"/>
      <point x="917.6666666666667" y="129.3333333333333"/>
    </contour>
    <contour>
      <point x="282.33333333333337" y="-23.33333333333333" type="curve" smooth="yes"/>
      <point x="467.3333333333332" y="-23.33333333333333"/>
      <point x="558.0" y="33.66666666666666"/>
      <point x="592.0000000000001" y="142.66666666666663" type="curve" smooth="yes"/>
      <point x="594.6666666666669" y="152.66666666666669" type="line" smooth="yes"/>
      <point x="612.0000000000001" y="216.0"/>
      <point x="621.9999999999999" y="312.33333333333326"/>
      <point x="598.6666666666666" y="386.66666666666663" type="curve"/>
      <point x="467.0000000000001" y="386.33333333333337"/>
      <point x="438.00000000000006" y="389.00000000000006"/>
      <point x="408.66666666666663" y="401.3333333333333" type="curve" smooth="yes"/>
      <point x="384.33333333333337" y="411.6666666666667" type="line" smooth="yes"/>
      <point x="337.3333333333333" y="431.6666666666667"/>
      <point x="325.66666666666674" y="454.6666666666667"/>
      <point x="333.00000000000006" y="482.3333333333333" type="curve" smooth="yes"/>
      <point x="335.00000000000006" y="489.66666666666674" type="line" smooth="yes"/>
      <point x="346.6666666666667" y="529.0000000000001"/>
      <point x="390.6666666666668" y="546.3333333333335"/>
      <point x="477.66666666666686" y="546.3333333333335" type="curve" smooth="yes"/>
      <point x="552.6666666666666" y="546.3333333333335"/>
      <point x="599.0" y="535.0"/>
      <point x="636.6666666666667" y="509.6666666666668" type="curve"/>
      <point x="642.6666666666669" y="509.6666666666668" type="line"/>
      <point x="666.3333333333335" y="534.0000000000001"/>
      <point x="683.6666666666666" y="566.0"/>
      <point x="691.6666666666666" y="597.6666666666667" type="curve" smooth="yes"/>
      <point x="700.0000000000001" y="631.3333333333334"/>
      <point x="702.9999999999999" y="660.3333333333334"/>
      <point x="683.3333333333331" y="682.0" type="curve" smooth="yes"/>
      <point x="663.6666666666669" y="703.6666666666667"/>
      <point x="607.6666666666667" y="720.0"/>
      <point x="503.0000000000001" y="720.0" type="curve" smooth="yes"/>
      <point x="333.3333333333333" y="720.0"/>
      <point x="203.33333333333331" y="648.3333333333333"/>
      <point x="175.33333333333334" y="535.3333333333334" type="curve" smooth="yes"/>
      <point x="172.33333333333334" y="524.6666666666666" type="line" smooth="yes"/>
      <point x="148.0" y="439.66666666666663"/>
      <point x="174.6666666666667" y="352.66666666666674"/>
      <point x="304.33333333333337" y="301.33333333333337" type="curve" smooth="yes"/>
      <point x="373.0" y="275.33333333333326" type="line" smooth="yes"/>
      <point x="430.3333333333334" y="253.99999999999997"/>
      <point x="446.3333333333333" y="223.66666666666666"/>
      <point x="438.0000000000001" y="182.66666666666666" type="curve" smooth="yes"/>
      <point x="437.00000000000006" y="178.33333333333334" type="line" smooth="yes"/>
      <point x="405.66666666666674" y="158.99999999999997"/>
      <point x="361.6666666666667" y="149.66666666666669"/>
      <point x="321.0" y="149.66666666666669" type="curve" smooth="yes"/>
      <point x="208.66666666666663" y="149.66666666666669"/>
      <point x="146.66666666666666" y="173.33333333333334"/>
      <point x="99.33333333333333" y="229.0" type="curve"/>
      <point x="93.33333333333334" y="229.0" type="line"/>
      <point x="80.33333333333336" y="210.66666666666666"/>
      <point x="70.00000000000001" y="189.66666666666663"/>
      <point x="62.00000000000003" y="157.66666666666666" type="curve" smooth="yes"/>
      <point x="49.00000000000003" y="108.00000000000001"/>
      <point x="53.33333333333336" y="58.66666666666667"/>
      <point x="75.66666666666669" y="30.333333333333332" type="curve" smooth="yes"/>
      <point x="105.33333333333334" y="-4.666666666666665"/>
      <point x="183.33333333333331" y="-23.33333333333333"/>
    </contour>
    <contour>
      <point x="479.99999999999994" y="440.3333333333333" type="curve"/>
      <point x="532.6666666666666" y="536.6666666666666"/>
      <point x="599.3333333333333" y="638.6666666666667"/>
      <point x="635.3333333333334" y="744.3333333333334" type="curve" smooth="yes"/>
      <point x="667.6666666666667" y="839.3333333333333"/>
      <point x="649.3333333333334" y="888.3333333333334"/>
      <point x="569.3333333333335" y="888.3333333333334" type="curve" smooth="yes"/>
      <point x="536.6666666666667" y="888.3333333333334"/>
      <point x="511.6666666666666" y="883.6666666666666"/>
      <point x="489.3333333333332" y="874.6666666666667" type="curve"/>
      <point x="495.0" y="844.6666666666666"/>
      <point x="496.3333333333333" y="813.9999999999999"/>
      <point x="489.9999999999999" y="767.9999999999999" type="curve" smooth="yes"/>
      <point x="478.3333333333333" y="682.6666666666667"/>
      <point x="443.99999999999994" y="587.6666666666666"/>
      <point x="420.66666666666663" y="494.00000000000006" type="curve" smooth="yes"/>
      <point x="414.3333333333333" y="466.3333333333333"/>
      <point x="424.3333333333333" y="451.66666666666674"/>
      <point x="447.33333333333337" y="445.3333333333333" type="curve" smooth="yes"/>
      <point x="457.3333333333333" y="441.33333333333326"/>
      <point x="469.3333333333334" y="440.0"/>
    </contour>
    <contour>
      <point x="290.0" y="238.6666666666667" type="curve"/>
      <point x="237.33333333333334" y="136.66666666666666"/>
      <point x="180.00000000000003" y="56.999999999999986"/>
      <point x="139.66666666666666" y="-52.00000000000002" type="curve" smooth="yes"/>
      <point x="101.0" y="-154.0"/>
      <point x="133.33333333333334" y="-195.0"/>
      <point x="205.33333333333334" y="-195.0" type="curve" smooth="yes"/>
      <point x="235.33333333333331" y="-195.0"/>
      <point x="263.00000000000006" y="-190.33333333333331"/>
      <point x="283.3333333333333" y="-181.33333333333334" type="curve"/>
      <point x="277.66666666666663" y="-151.33333333333331"/>
      <point x="278.33333333333326" y="-120.66666666666669"/>
      <point x="285.3333333333333" y="-76.66666666666666" type="curve" smooth="yes"/>
      <point x="299.99999999999994" y="13.333333333333321"/>
      <point x="333.66666666666663" y="109.0"/>
      <point x="352.6666666666667" y="184.33333333333337" type="curve" smooth="yes"/>
      <point x="358.66666666666663" y="215.66666666666666"/>
      <point x="348.33333333333337" y="232.66666666666666"/>
      <point x="320.0" y="236.33333333333334" type="curve" smooth="yes"/>
      <point x="308.00000000000006" y="239.66666666666666"/>
      <point x="298.66666666666663" y="239.66666666666669"/>
    </contour>
  </outline>
</glyph>
<glyph name="dotlessj.italic" format="2">
  <advance width="600.0"/>
  <outline>
    <contour>
      <point x="395.00000000000006" y="556.6666666666666" type="curve" smooth="yes"/>
      <point x="312.6666666666667" y="556.6666666666666"/>
      <point x="216.00000000000003" y="550.9999999999999"/>
      <point x="145.0" y="539.3333333333333" type="curve"/>
      <point x="132.33333333333334" y="516.3333333333333"/>
      <point x="118.0" y="489.3333333333334"/>
      <point x="110.33333333333334" y="459.3333333333333" type="curve" smooth="yes"/>
      <point x="91.66666666666669" y="386.3333333333334"/>
      <point x="110.33333333333331" y="342.6666666666667"/>
      <point x="163.66666666666669" y="342.6666666666667" type="curve" smooth="yes"/>
      <point x="198.00000000000006" y="342.6666666666667"/>
      <point x="247.33333333333331" y="355.33333333333337"/>
      <point x="335.0" y="394.0" type="curve"/>
      <point x="340.00000000000006" y="390.00000000000006" type="line"/>
      <point x="304.66666666666674" y="285.9999999999999"/>
      <point x="299.3333333333335" y="204.33333333333331"/>
      <point x="268.66666666666663" y="105.99999999999997" type="curve" smooth="yes"/>
      <point x="252.33333333333337" y="55.0"/>
      <point x="237.00000000000003" y="24.0"/>
      <point x="212.99999999999994" y="-3.666666666666684" type="curve"/>
      <point x="188.00000000000006" y="-7.666666666666693"/>
      <point x="163.33333333333331" y="-9.666666666666682"/>
      <point x="141.66666666666674" y="-9.666666666666682" type="curve" smooth="yes"/>
      <point x="85.33333333333331" y="-9.666666666666682"/>
      <point x="38.66666666666666" y="4.999999999999998"/>
      <point x="-2.666666666666668" y="30.666666666666664" type="curve"/>
      <point x="-8.000000000000004" y="30.666666666666664" type="line"/>
      <point x="-22.66666666666668" y="5.333333333333309"/>
      <point x="-33.99999999999999" y="-22.000000000000007"/>
      <point x="-41.33333333333333" y="-51.33333333333332" type="curve" smooth="yes"/>
      <point x="-51.333333333333314" y="-89.0"/>
      <point x="-48.33333333333336" y="-121.6666666666666"/>
      <point x="-31.666666666666675" y="-144.99999999999994" type="curve" smooth="yes"/>
      <point x="-7.999999999999982" y="-178.66666666666666"/>
      <point x="41.66666666666666" y="-200.0"/>
      <point x="126.66666666666667" y="-200.0" type="curve" smooth="yes"/>
      <point x="276.33333333333337" y="-200.0"/>
      <point x="397.6666666666666" y="-118.66666666666667"/>
      <point x="453.99999999999994" y="42.99999999999999" type="curve" smooth="yes"/>
      <point x="502.33333333333326" y="175.66666666666663"/>
      <point x="500.0000000000001" y="248.66666666666663"/>
      <point x="554.3333333333334" y="399.99999999999994" type="curve" smooth="yes"/>
      <point x="585.6666666666667" y="487.6666666666668"/>
      <point x="525.0000000000002" y="556.6666666666666"/>
    </contour>
  </outline>
</glyph>
<glyph name="equal_equal_equal.code" format="2">
  <advance width="1800.0"/>
  <outline>
    <contour>
      <point x="1795.0" y="481.3333333333334" type="line"/>
      <point x="1809.3333333333335" y="510.3333333333333"/>
      <point x="1819.0" y="534.0"/>
      <point x="1825.3333333333333" y="559.6666666666666" type="curve" smooth="yes"/>
      <point x="1844.0" y="635.3333333333333"/>
      <point x="1824.6666666666667" y="659.3333333333333"/>
      <point x="1739.3333333333335" y="659.3333333333333" type="curve" smooth="yes"/>
      <point x="142.33333333333334" y="659.3333333333333" type="line"/>
      <point x="140.66666666666666" y="652.0"/>
      <point x="139.33333333333337" y="645.3333333333333"/>
      <point x="137.0" y="637.0000000000001" type="curve" smooth="yes"/>
      <point x="105.33333333333336" y="509.66666666666674"/>
      <point x="123.0" y="481.3333333333334"/>
      <point x="240.33333333333331" y="481.3333333333334" type="curve" smooth="yes"/>
    </contour>
    <contour>
      <point x="1747.3333333333335" y="250.00000000000003" type="line"/>
      <point x="1753.3333333333335" y="272.0"/>
      <point x="1754.3333333333333" y="278.6666666666667"/>
      <point x="1760.3333333333333" y="300.3333333333333" type="curve" smooth="yes"/>
      <point x="1784.0000000000002" y="396.33333333333337"/>
      <point x="1765.666666666667" y="421.33333333333337"/>
      <point x="1661.6666666666672" y="421.33333333333337" type="curve" smooth="yes"/>
      <point x="93.0" y="421.33333333333337" type="line"/>
      <point x="79.33333333333333" y="390.33333333333337"/>
      <point x="69.66666666666667" y="368.0"/>
      <point x="62.000000000000014" y="336.3333333333333" type="curve" smooth="yes"/>
      <point x="43.66666666666668" y="264.6666666666667"/>
      <point x="64.33333333333334" y="250.00000000000003"/>
      <point x="150.3333333333333" y="250.00000000000003" type="curve" smooth="yes"/>
    </contour>
    <contour>
      <point x="1688.3333333333335" y="12.000000000000007" type="line"/>
      <point x="1690.0000000000002" y="19.333333333333357"/>
      <point x="1691.3333333333335" y="26.000000000000014"/>
      <point x="1693.6666666666667" y="34.333333333333336" type="curve" smooth="yes"/>
      <point x="1724.6666666666667" y="159.33333333333334"/>
      <point x="1691.6666666666667" y="190.0"/>
      <point x="1578.6666666666667" y="190.0" type="curve" smooth="yes"/>
      <point x="35.0" y="190.0" type="line"/>
      <point x="21.33333333333334" y="159.00000000000003"/>
      <point x="11.0" y="132.66666666666669"/>
      <point x="4.000000000000002" y="105.0" type="curve" smooth="yes"/>
      <point x="-13.333333333333329" y="35.00000000000001"/>
      <point x="11.333333333333341" y="12.000000000000007"/>
      <point x="111.66666666666667" y="12.000000000000007" type="curve" smooth="yes"/>
    </contour>
  </outline>
</glyph>
<glyph name="exclam_equal.code" format="2">
  <advance width="1200.0"/>
  <outline>
    <contour>
      <point x="1111.0" y="342.0" type="line"/>
      <point x="1125.9999999999998" y="372.0"/>
      <point x="1135.9999999999998" y="399.00000000000006"/>
      <point x="1143.6666666666667" y="427.0000000000001" type="curve" smooth="yes"/>
      <point x="1161.6666666666667" y="498.99999999999994"/>
      <point x="1134.9999999999998" y="533.3333333333334"/>
      <point x="1055.6666666666665" y="533.3333333333334" type="curve" smooth="yes"/>
      <point x="162.33333333333348" y="533.3333333333334" type="line"/>
      <point x="159.00000000000023" y="524.0"/>
      <point x="155.33333333333354" y="514.6666666666667"/>
      <point x="152.00000000000009" y="500.0" type="curve" smooth="yes"/>
      <point x="122.33333333333337" y="380.00000000000006"/>
      <point x="141.66666666666683" y="342.0"/>
      <point x="234.99999999999994" y="342.0" type="curve"/>
    </contour>
    <contour>
      <point x="1049.6666666666667" y="66.6666666666667" type="line"/>
      <point x="1053.3333333333335" y="74.66666666666669"/>
      <point x="1057.9999999999998" y="85.00000000000003"/>
      <point x="1061.3333333333333" y="100.0" type="curve" smooth="yes"/>
      <point x="1089.3333333333335" y="214.33333333333334"/>
      <point x="1066.9999999999998" y="258.0"/>
      <point x="971.6666666666667" y="258.0" type="curve" smooth="yes"/>
      <point x="102.33333333333354" y="258.0" type="line"/>
      <point x="87.00000000000026" y="226.0"/>
      <point x="75.6666666666666" y="194.66666666666669"/>
      <point x="68.66666666666659" y="168.66666666666666" type="curve" smooth="yes"/>
      <point x="51.66666666666656" y="98.6666666666667"/>
      <point x="74.66666666666671" y="66.6666666666667"/>
      <point x="146.66666666666669" y="66.6666666666667" type="curve"/>
    </contour>
    <contour>
      <point x="937.3333333333334" y="751.6666666666667" type="curve"/>
      <point x="895.6666666666667" y="765.6666666666667"/>
      <point x="847.0000000000001" y="773.3333333333334"/>
      <point x="798.6666666666666" y="773.3333333333334" type="curve" smooth="yes"/>
      <point x="740.3333333333334" y="773.3333333333334"/>
      <point x="703.9999999999999" y="743.9999999999999"/>
      <point x="674.6666666666666" y="677.6666666666666" type="curve" smooth="yes"/>
      <point x="563.6666666666666" y="422.3333333333333"/>
      <point x="432.66666666666663" y="189.33333333333331"/>
      <point x="251.0" y="-13.000000000000005" type="curve" smooth="yes"/>
      <point x="211.33333333333334" y="-56.66666666666667"/>
      <point x="179.33333333333334" y="-81.66666666666667"/>
      <point x="150.00000000000003" y="-99.0" type="curve"/>
      <point x="179.00000000000003" y="-123.33333333333336"/>
      <point x="222.66666666666674" y="-133.0"/>
      <point x="267.00000000000006" y="-133.0" type="curve" smooth="yes"/>
      <point x="341.66666666666663" y="-133.0"/>
      <point x="398.6666666666667" y="-103.99999999999999"/>
      <point x="473.6666666666667" y="-23.000000000000018" type="curve"/>
      <point x="670.9999999999999" y="189.33333333333334"/>
      <point x="816.6666666666667" y="457.00000000000006"/>
    </contour>
  </outline>
</glyph>
<glyph name="exclam_equal_equal.code" format="2">
  <advance width="1800.0"/>
  <outline>
    <contour>
      <point x="1745.0" y="481.3333333333334" type="line"/>
      <point x="1759.3333333333335" y="510.3333333333333"/>
      <point x="1769.0000000000002" y="534.0"/>
      <point x="1775.3333333333335" y="559.6666666666666" type="curve" smooth="yes"/>
      <point x="1794.0000000000002" y="635.3333333333333"/>
      <point x="1774.666666666667" y="659.3333333333333"/>
      <point x="1689.3333333333335" y="659.3333333333333" type="curve" smooth="yes"/>
      <point x="189.66666666666666" y="659.3333333333333" type="line"/>
      <point x="188.0" y="652.0"/>
      <point x="186.66666666666666" y="645.3333333333333"/>
      <point x="184.33333333333334" y="637.0000000000001" type="curve" smooth="yes"/>
      <point x="152.66666666666669" y="509.66666666666674"/>
      <point x="170.33333333333334" y="481.3333333333334"/>
      <point x="287.6666666666667" y="481.3333333333334" type="curve" smooth="yes"/>
    </contour>
    <contour>
      <point x="1697.3333333333335" y="250.00000000000003" type="line"/>
      <point x="1703.3333333333335" y="272.0"/>
      <point x="1704.3333333333335" y="278.6666666666667"/>
      <point x="1710.3333333333337" y="300.3333333333333" type="curve" smooth="yes"/>
      <point x="1734.0000000000002" y="396.33333333333337"/>
      <point x="1715.666666666667" y="421.33333333333337"/>
      <point x="1611.6666666666667" y="421.33333333333337" type="curve" smooth="yes"/>
      <point x="140.33333333333337" y="421.33333333333337" type="line"/>
      <point x="126.66666666666667" y="390.33333333333337"/>
      <point x="117.00000000000001" y="368.0"/>
      <point x="109.33333333333334" y="336.3333333333333" type="curve" smooth="yes"/>
      <point x="91.00000000000003" y="264.6666666666667"/>
      <point x="111.66666666666669" y="250.00000000000003"/>
      <point x="197.66666666666669" y="250.00000000000003" type="curve" smooth="yes"/>
    </contour>
    <contour>
      <point x="1638.3333333333335" y="12.000000000000007" type="line"/>
      <point x="1640.0000000000002" y="19.333333333333357"/>
      <point x="1641.3333333333335" y="26.000000000000014"/>
      <point x="1643.666666666667" y="34.333333333333336" type="curve" smooth="yes"/>
      <point x="1674.666666666667" y="159.33333333333334"/>
      <point x="1641.666666666667" y="190.0"/>
      <point x="1528.666666666667" y="190.0" type="curve" smooth="yes"/>
      <point x="82.33333333333334" y="190.0" type="line"/>
      <point x="68.66666666666669" y="159.00000000000003"/>
      <point x="58.33333333333334" y="132.66666666666669"/>
      <point x="51.33333333333336" y="105.0" type="curve" smooth="yes"/>
      <point x="34.000000000000014" y="35.00000000000001"/>
      <point x="58.666666666666664" y="12.000000000000007"/>
      <point x="159.0" y="12.000000000000007" type="curve" smooth="yes"/>
    </contour>
    <contour>
      <point x="1207.333333333333" y="758.3333333333334" type="curve"/>
      <point x="1165.6666666666667" y="772.3333333333334"/>
      <point x="1117.0" y="780.0"/>
      <point x="1068.666666666667" y="780.0" type="curve" smooth="yes"/>
      <point x="1010.3333333333336" y="780.0"/>
      <point x="974.0000000000001" y="750.6666666666666"/>
      <point x="944.6666666666666" y="684.3333333333333" type="curve" smooth="yes"/>
      <point x="833.6666666666667" y="429.0"/>
      <point x="702.6666666666666" y="196.0"/>
      <point x="521.0" y="-6.333333333333336" type="curve" smooth="yes"/>
      <point x="481.3333333333335" y="-49.999999999999986"/>
      <point x="449.3333333333335" y="-75.0"/>
      <point x="419.9999999999999" y="-92.33333333333331" type="curve"/>
      <point x="449.0" y="-116.66666666666666"/>
      <point x="492.66666666666674" y="-126.33333333333334"/>
      <point x="537.0000000000001" y="-126.33333333333334" type="curve" smooth="yes"/>
      <point x="611.6666666666669" y="-126.33333333333334"/>
      <point x="668.6666666666667" y="-97.33333333333331"/>
      <point x="743.6666666666667" y="-16.33333333333334" type="curve"/>
      <point x="941.0000000000002" y="196.00000000000003"/>
      <point x="1086.6666666666665" y="463.66666666666663"/>
    </contour>
  </outline>
</glyph>
<glyph name="greater_equal.code" format="2">
  <advance width="1200.0"/>
  <outline>
    <contour>
      <point x="238.99999999999997" y="125.99999999999996" type="curve"/>
      <point x="224.66666666666663" y="101.33333333333331"/>
      <point x="211.66666666666666" y="71.33333333333333"/>
      <point x="204.0" y="40.333333333333336" type="curve" smooth="yes"/>
      <point x="190.99999999999997" y="-11.999999999999998"/>
      <point x="207.33333333333331" y="-38.333333333333336"/>
      <point x="275.33333333333337" y="-38.333333333333336" type="curve" smooth="yes"/>
      <point x="431.3333333333333" y="-38.333333333333336"/>
      <point x="681.6666666666666" y="19.666666666666675"/>
      <point x="846.0" y="98.33333333333333" type="curve" smooth="yes"/>
      <point x="910.3333333333333" y="128.99999999999997"/>
      <point x="941.9999999999999" y="167.0"/>
      <point x="956.6666666666665" y="221.0" type="curve" smooth="yes"/>
      <point x="965.9999999999999" y="255.33333333333334"/>
      <point x="970.6666666666667" y="285.3333333333333"/>
      <point x="971.0" y="305.3333333333333" type="curve"/>
      <point x="728.3333333333333" y="191.66666666666666"/>
      <point x="482.33333333333337" y="137.66666666666666"/>
    </contour>
    <contour>
      <point x="982.0000000000001" y="391.99999999999994" type="curve"/>
      <point x="998.0000000000001" y="419.6666666666667"/>
      <point x="1010.6666666666666" y="454.3333333333333"/>
      <point x="1021.6666666666666" y="498.33333333333337" type="curve" smooth="yes"/>
      <point x="1036.6666666666665" y="557.3333333333333"/>
      <point x="1027.3333333333335" y="587.6666666666665"/>
      <point x="972.0000000000002" y="613.0" type="curve" smooth="yes"/>
      <point x="859.3333333333333" y="664.3333333333334"/>
      <point x="628.0000000000001" y="721.6666666666666"/>
      <point x="390.99999999999994" y="747.6666666666665" type="curve"/>
      <point x="378.33333333333326" y="726.0"/>
      <point x="366.6666666666667" y="697.3333333333334"/>
      <point x="357.6666666666667" y="660.3333333333333" type="curve" smooth="yes"/>
      <point x="337.0" y="577.3333333333334"/>
      <point x="355.99999999999994" y="544.6666666666666"/>
      <point x="456.0" y="538.3333333333333" type="curve" smooth="yes"/>
      <point x="597.0" y="529.6666666666666"/>
      <point x="743.0" y="507.0000000000001"/>
      <point x="850.9999999999999" y="477.66666666666674" type="curve"/>
      <point x="824.0" y="517.9999999999999" type="line"/>
      <point x="807.0000000000001" y="448.6666666666667" type="line"/>
      <point x="851.6666666666667" y="493.99999999999994" type="line"/>
      <point x="711.0" y="436.6666666666667"/>
      <point x="499.33333333333337" y="393.33333333333337"/>
      <point x="296.0" y="377.3333333333334" type="curve"/>
      <point x="289.6666666666667" y="364.3333333333333"/>
      <point x="277.33333333333337" y="340.66666666666663"/>
      <point x="269.00000000000006" y="308.3333333333333" type="curve" smooth="yes"/>
      <point x="249.0" y="227.99999999999997"/>
      <point x="268.99999999999994" y="204.99999999999997"/>
      <point x="324.0" y="204.99999999999997" type="curve" smooth="yes"/>
      <point x="365.99999999999994" y="205.0"/>
      <point x="418.0" y="210.66666666666663"/>
      <point x="472.66666666666663" y="221.0" type="curve" smooth="yes"/>
      <point x="637.6666666666666" y="250.33333333333334"/>
      <point x="831.0" y="308.00000000000006"/>
    </contour>
  </outline>
</glyph>
<glyph name="l.sans" format="2">
  <advance width="600.0"/>
  <anchor x="341.00000000000006" y="730.0" name="top"/>
  <anchor x="296.0000000000001" y="-1.0" name="bottom"/>
  <anchor x="503.33333333333314" y="400.0" name="dot"/>
  <anchor x="569.6666666666666" y="677.6666666666667" name="caronslovak"/>
  <anchor x="239.3333333333333" y="388.33333333333337" name="slash"/>
  <outline>
    <contour>
      <point x="231.33333333333331" y="633.6666666666665" type="curve" smooth="yes"/>
      <point x="198.33333333333337" y="481.66666666666663"/>
      <point x="116.33333333333334" y="375.0"/>
      <point x="93.33333333333333" y="222.3333333333333" type="curve" smooth="yes"/>
      <point x="77.65926198073335" y="120.2869306349"/>
      <point x="133.0" y="-10.666666666666664"/>
      <point x="309.33333333333326" y="-10.666666666666664" type="curve" smooth="yes"/>
      <point x="395.85815602836675" y="-10.666666666666664"/>
      <point x="436.1355000673668" y="5.802166734033333"/>
      <point x="461.33333333333337" y="31.000000000000007" type="curve" smooth="yes"/>
      <point x="482.0285745733001" y="51.69524123996666"/>
      <point x="495.4855378953333" y="76.87829951586663"/>
      <point x="506.00000000000006" y="125.33333333333333" type="curve" smooth="yes"/>
      <point x="515.8533507502" y="167.08006966739998"/>
      <point x="516.5913052153002" y="202.11883537483337"/>
      <point x="512.0000000000001" y="228.33333333333331" type="curve"/>
      <point x="506.0" y="228.33333333333331" type="line"/>
      <point x="462.00000000000006" y="183.66666666666663"/>
      <point x="411.33333333333337" y="168.66666666666666"/>
      <point x="354.00000000000006" y="168.66666666666666" type="curve" smooth="yes"/>
      <point x="320.69369369366655" y="168.66666666666666"/>
      <point x="300.32437370540003" y="172.1997676899333"/>
      <point x="282.66666666666674" y="180.33333333333326" type="curve" smooth="yes"/>
      <point x="281.34791769806657" y="197.86874071753326"/>
      <point x="284.69039850679997" y="222.07119552039998"/>
      <point x="294.00000000000006" y="251.66666666666666" type="curve" smooth="yes"/>
      <point x="326.33333333333337" y="363.6666666666667"/>
      <point x="381.6666666666667" y="453.3333333333334"/>
      <point x="414.0" y="573.6666666666667" type="curve" smooth="yes"/>
      <point x="448.0" y="702.6666666666667"/>
      <point x="403.66666666666674" y="759.3333333333333"/>
      <point x="305.6666666666667" y="759.3333333333333" type="curve" smooth="yes"/>
      <point x="279.33333333333326" y="759.3333333333333"/>
      <point x="256.00000000000006" y="756.0"/>
      <point x="231.33333333333334" y="750.0" type="curve"/>
      <point x="241.33333333333337" y="713.6666666666665"/>
      <point x="240.33333333333337" y="678.3333333333333"/>
    </contour>
  </outline>
</glyph>
<glyph name="less_hyphen.code" format="2">
  <advance width="1200.0"/>
  <outline>
    <contour>
      <point x="358.0" y="383.3333333333333" type="curve"/>
      <point x="347.6666666666667" y="370.99999999999994"/>
      <point x="342.3333333333333" y="358.99999999999994"/>
      <point x="338.3333333333333" y="343.66666666666663" type="curve" smooth="yes"/>
      <point x="331.66666666666663" y="316.99999999999994"/>
      <point x="341.6666666666666" y="299.33333333333337"/>
      <point x="377.6666666666666" y="286.66666666666663" type="curve"/>
      <point x="427.66666666666674" y="270.66666666666674"/>
      <point x="492.00000000000006" y="259.3333333333333"/>
      <point x="540.3333333333334" y="259.3333333333333" type="curve"/>
      <point x="1111.333333333333" y="259.3333333333333" type="line"/>
      <point x="1127.6666666666667" y="282.99999999999994"/>
      <point x="1137.3333333333333" y="303.3333333333333"/>
      <point x="1143.0" y="326.66666666666663" type="curve" smooth="yes"/>
      <point x="1161.6666666666667" y="402.6666666666667"/>
      <point x="1147.0000000000002" y="436.0"/>
      <point x="1088.3333333333335" y="436.0" type="curve"/>
      <point x="586.3333333333335" y="436.0" type="line" smooth="yes"/>
      <point x="532.0000000000001" y="436.0"/>
      <point x="458.6666666666667" y="418.99999999999994"/>
    </contour>
    <contour>
      <point x="103.97692006393333" y="408.4076429643334" type="line"/>
      <point x="186.93071870233334" y="509.29702442653337"/>
      <point x="301.73597100679996" y="586.4158262797333"/>
      <point x="433.4354547806001" y="626.6681053968334" type="curve" smooth="yes"/>
      <point x="472.72706873570013" y="639.5199174418334"/>
      <point x="495.60631565376667" y="640.3268694754"/>
      <point x="511.29025423610005" y="639.8407699248" type="curve" smooth="yes"/>
      <point x="555.9167084374" y="638.3017850805334"/>
      <point x="567.3136459688" y="604.1843598579"/>
      <point x="553.0811577618667" y="547.2702661965665" type="curve"/>
      <point x="545.0753831454667" y="515.2560885120666"/>
      <point x="534.9684334956332" y="495.44967507523336"/>
      <point x="523.5680718260332" y="477.3410958184" type="curve"/>
      <point x="393.7286055972667" y="445.9008224800668"/>
      <point x="322.0972758118999" y="408.1508065273334"/>
      <point x="236.63878106883334" y="330.2216285023666" type="curve"/>
      <point x="266.79699610880004" y="375.2504323592" type="line"/>
      <point x="252.2410422608" y="317.04283656920006" type="line"/>
      <point x="244.56368927496666" y="361.91243065469996" type="line"/>
      <point x="294.81238631943324" y="287.7822198111999"/>
      <point x="347.39134153436675" y="248.2373256981667"/>
      <point x="456.85328335603333" y="210.55628178089998" type="curve"/>
      <point x="459.1966070757667" y="192.44680143506667"/>
      <point x="459.4378546730667" y="172.8013999475667"/>
      <point x="451.4320800566666" y="140.78722226306664" type="curve"/>
      <point x="437.8465231318666" y="86.46013285906666"/>
      <point x="412.9447148681333" y="63.825107131999985"/>
      <point x="376.48360549016667" y="65.0401757907" type="curve" smooth="yes"/>
      <point x="362.17403544676665" y="65.5261852324"/>
      <point x="339.6993909067334" y="70.45921647646666"/>
      <point x="309.94929249190005" y="84.77076891566668" type="curve" smooth="yes"/>
      <point x="243.90107904423343" y="120.18530062296665"/>
      <point x="190.9499801393667" y="158.50940113966666"/>
      <point x="133.71602519296667" y="226.42312877526663" type="curve" smooth="yes"/>
      <point x="88.93126230933333" y="279.5413670346667"/>
      <point x="79.79786339420001" y="311.7183588465"/>
      <point x="96.29461108859999" y="377.68696740850004" type="curve" smooth="yes"/>
    </contour>
  </outline>
</glyph>
<glyph name="parenleft.case" format="2">
  <advance width="600.0"/>
  <outline>
    <contour>
      <point x="339.66666666666663" y="700.0" type="curve" smooth="yes"/>
      <point x="238.0000000000001" y="622.0"/>
      <point x="180.33333333333331" y="519.0"/>
      <point x="142.33333333333331" y="370.00000000000006" type="curve" smooth="yes"/>
      <point x="139.0" y="356.99999999999994" type="line" smooth="yes"/>
      <point x="104.00000000000003" y="215.6666666666666"/>
      <point x="122.00000000000006" y="50.99999999999999"/>
      <point x="185.33333333333343" y="-22.999999999999996" type="curve" smooth="yes"/>
      <point x="219.33333333333331" y="-64.3333333333333"/>
      <point x="255.99999999999994" y="-83.0"/>
      <point x="305.66666666666663" y="-83.0" type="curve" smooth="yes"/>
      <point x="352.0" y="-83.0"/>
      <point x="383.66666666666663" y="-69.33333333333334"/>
      <point x="414.66666666666663" y="-36.66666666666667" type="curve"/>
      <point x="416.33333333333337" y="-30.666666666666668" type="line"/>
      <point x="324.66666666666663" y="56.999999999999986"/>
      <point x="306.3333333333333" y="197.33333333333334"/>
      <point x="339.66666666666674" y="330.0" type="curve" smooth="yes"/>
      <point x="343.0" y="343.0" type="line" smooth="yes"/>
      <point x="376.33333333333337" y="475.33333333333337"/>
      <point x="460.66666666666663" y="597.6666666666667"/>
      <point x="598.0000000000001" y="696.3333333333334" type="curve"/>
      <point x="600.0000000000001" y="702.3333333333335" type="line"/>
      <point x="574.6666666666669" y="731.6666666666667"/>
      <point x="537.666666666667" y="750.0000000000001"/>
      <point x="479.0000000000001" y="750.0000000000001" type="curve" smooth="yes"/>
      <point x="428.0" y="750.0000000000001"/>
      <point x="393.66666666666663" y="741.6666666666666"/>
    </contour>
  </outline>
</glyph>
<glyph name="r.italic" format="2">
  <advance width="600.0"/>
  <outline>
    <contour>
      <point x="258.6666666666665" y="386.6666666666667" type="line"/>
      <point x="208.6666666666666" y="163.66666666666669" type="line"/>
      <point x="282.80378481439993" y="288.7224831756"/>
      <point x="357.8269230769334" y="336.33333333333326"/>
      <point x="446.33333333333337" y="336.33333333333326" type="curve" smooth="yes"/>
      <point x="491.19047619046654" y="336.33333333333326"/>
      <point x="521.3333333333336" y="324.6666666666667"/>
      <point x="545.9999999999999" y="302.66666666666663" type="curve"/>
      <point x="552.0" y="302.66666666666663" type="line"/>
      <point x="577.6666666666666" y="332.0"/>
      <point x="596.9941430151665" y="374.97787361286663"/>
      <point x="608.6666666666667" y="421.00000000000006" type="curve" smooth="yes"/>
      <point x="619.6666666666667" y="468.0"/>
      <point x="619.9999999999999" y="519.9999999999999"/>
      <point x="595.0000000000001" y="545.0" type="curve" smooth="yes"/>
      <point x="578.6666666666667" y="561.3333333333331"/>
      <point x="558.0" y="566.6666666666666"/>
      <point x="528.6666666666666" y="566.6666666666666" type="curve" smooth="yes"/>
      <point x="457.33333333333337" y="566.6666666666666"/>
      <point x="365.90768590109985" y="512.7803419207331"/>
      <point x="296.33333333333326" y="374.66666666666663" type="curve"/>
    </contour>
    <contour>
      <point x="202.66666666666669" y="-2.220446049250313e-16" type="curve"/>
      <point x="192.66666666666669" y="121.00000000000001"/>
      <point x="251.99999999999994" y="237.66666666666669"/>
      <point x="291.3333333333333" y="377.33333333333337" type="curve" smooth="yes"/>
      <point x="326.6666666666667" y="503.0"/>
      <point x="285.66666666666674" y="555.3333333333333"/>
      <point x="181.00000000000003" y="555.3333333333333" type="curve"/>
      <point x="158.33333333333337" y="555.3333333333333"/>
      <point x="135.66666666666663" y="552.0000000000001"/>
      <point x="113.0" y="546.6666666666666" type="curve"/>
      <point x="117.33333333333334" y="512.0"/>
      <point x="116.66666666666669" y="468.0"/>
      <point x="105.00000000000001" y="420.33333333333326" type="curve" smooth="yes"/>
      <point x="88.66666666666667" y="346.99999999999994"/>
      <point x="35.666666666666686" y="228.66666666666669"/>
      <point x="22.000000000000004" y="141.33333333333334" type="curve" smooth="yes"/>
      <point x="9.000000000000007" y="61.00000000000001"/>
      <point x="31.999999999999996" y="-6.666666666666667"/>
      <point x="136.99999999999997" y="-6.666666666666667" type="curve" smooth="yes"/>
      <point x="156.33333333333334" y="-6.666666666666667"/>
      <point x="180.66666666666669" y="-4.333333333333333"/>
    </contour>
  </outline>
</glyph>
<glyph name="z.italic" format="2">
  <advance width="600.0"/>
  <outline>
    <contour>
      <point x="110.33333333333333" y="546.6666666666666" type="line"/>
      <point x="100.66666666666669" y="528.0"/>
      <point x="94.66666666666664" y="507.66666666666663"/>
      <point x="89.33333333333331" y="486.00000000000006" type="curve" smooth="yes"/>
      <point x="64.99999999999999" y="393.66666666666663"/>
      <point x="88.33333333333333" y="353.0"/>
      <point x="149.33333333333334" y="353.0" type="curve" smooth="yes"/>
      <point x="183.66666666666669" y="353.0" type="line" smooth="yes"/>
      <point x="227.99999999999994" y="353.0"/>
      <point x="272.0" y="355.99999999999994"/>
      <point x="323.3333333333334" y="365.00000000000006" type="curve"/>
      <point x="324.6666666666667" y="359.0000000000001" type="line"/>
      <point x="302.66666666666663" y="339.3333333333334"/>
      <point x="277.66666666666663" y="321.33333333333337"/>
      <point x="254.66666666666669" y="305.00000000000006" type="curve" smooth="yes"/>
      <point x="178.66666666666669" y="247.66666666666663"/>
      <point x="92.33333333333334" y="195.33333333333334"/>
      <point x="3.9999999999999973" y="151.66666666666663" type="curve"/>
      <point x="-1.3333333333333366" y="130.66666666666666" type="line" smooth="yes"/>
      <point x="-24.0" y="44.666666666666664"/>
      <point x="4.3333333333333295" y="0.0"/>
      <point x="52.666666666666664" y="0.0" type="curve" smooth="yes"/>
      <point x="492.0" y="0.0" type="line"/>
      <point x="502.99999999999994" y="22.33333333333334"/>
      <point x="512.6666666666666" y="52.666666666666664"/>
      <point x="519.6666666666666" y="81.66666666666664" type="curve" smooth="yes"/>
      <point x="539.6666666666666" y="157.99999999999994"/>
      <point x="523.3333333333333" y="193.66666666666663"/>
      <point x="440.00000000000006" y="193.66666666666663" type="curve"/>
      <point x="406.6666666666667" y="193.66666666666663" type="line" smooth="yes"/>
      <point x="358.33333333333337" y="193.66666666666663"/>
      <point x="314.6666666666666" y="192.3333333333333"/>
      <point x="259.33333333333326" y="186.3333333333333" type="curve"/>
      <point x="259.0" y="191.3333333333333" type="line"/>
      <point x="298.3333333333334" y="206.0"/>
      <point x="341.3333333333332" y="223.99999999999997"/>
      <point x="374.66666666666674" y="240.66666666666674" type="curve" smooth="yes"/>
      <point x="492.0" y="300.0"/>
      <point x="589.6666666666667" y="373.3333333333334"/>
      <point x="597.0" y="402.00000000000006" type="curve"/>
      <point x="599.0000000000002" y="410.0" type="line" smooth="yes"/>
      <point x="614.0000000000002" y="472.99999999999994"/>
      <point x="591.0000000000002" y="546.6666666666666"/>
      <point x="528.6666666666667" y="546.6666666666666" type="curve"/>
    </contour>
  </outline>
</glyph>
